<svg width="300" height="400" viewBox="0 0 300 400" fill="none" xmlns="http://www.w3.org/2000/svg">
<g filter="url(#filter0_i_113_71)">
<rect width="300" height="400" fill="#2B093D"/>
</g>
<rect x="5" y="5" width="290" height="390" stroke="#FF2C78" stroke-width="10"/>
<g clip-path="url(#clip0_113_71)">
<path opacity="0.5" fill-rule="evenodd" clip-rule="evenodd" d="M283.561 23.7816C284.168 28.4692 284.882 33.9743 280.728 38.1274C276.144 42.7122 267.706 40.7785 267.872 32.1273L282.014 17.9861C282.956 18.9289 283.173 20.5977 283.379 22.3494C283.434 22.8161 283.497 23.2941 283.561 23.7816Z" fill="#FF2C78"/>
<path d="M277.651 16.6209C272.69 16.0317 266.458 14.6863 261.874 19.2702C257.289 23.8551 259.222 32.2923 267.874 32.1264L282.014 17.9861C281.071 17.0433 279.402 16.8265 277.651 16.6209Z" fill="#FF2C78"/>
</g>
<path d="M70.888 233.792C70.7173 233.792 70.5253 233.728 70.312 233.6C69.7573 233.216 69.48 232.768 69.48 232.256C69.48 231.36 70.056 230.699 71.208 230.272C71.3787 230.187 71.5493 230.144 71.72 230.144C69.288 229.248 67.112 227.925 65.192 226.176C63.3147 224.427 61.8427 222.357 60.776 219.968C59.7093 217.579 59.176 215.019 59.176 212.288C59.176 210.411 59.4533 208.469 60.008 206.464C60.6053 204.416 61.5013 202.368 62.696 200.32C64.0613 198.059 65.7467 196.139 67.752 194.56C69.7573 192.981 71.9333 191.787 74.28 190.976C76.6693 190.165 79.0587 189.76 81.448 189.76C81.7893 189.76 82.1093 189.76 82.408 189.76C82.7067 189.76 83.0053 189.781 83.304 189.824C83.6027 189.739 83.88 189.675 84.136 189.632C84.392 189.547 84.6267 189.44 84.84 189.312C85.7787 188.843 86.3973 188.288 86.696 187.648C86.056 187.52 85.5227 187.179 85.096 186.624C84.712 186.027 84.52 185.387 84.52 184.704C84.52 183.979 84.6267 183.381 84.84 182.912C85.0533 182.4 85.2453 181.973 85.416 181.632C85.5013 181.419 85.5867 181.184 85.672 180.928C85.7573 180.629 85.8 180.331 85.8 180.032C85.8 179.648 85.7147 179.285 85.544 178.944C85.416 178.603 85.1387 178.389 84.712 178.304C84.7973 178.219 84.8827 178.133 84.968 178.048C85.096 177.963 85.3093 177.92 85.608 177.92C86.3333 177.92 87.016 178.261 87.656 178.944C88.296 179.627 88.8293 180.437 89.256 181.376C89.6827 182.272 89.896 183.083 89.896 183.808C89.896 184.875 89.6187 185.771 89.064 186.496C88.552 187.179 87.976 187.563 87.336 187.648C86.952 188.629 86.312 189.376 85.416 189.888L85.096 190.08C86.9733 190.379 88.7653 190.997 90.472 191.936C92.1787 192.832 93.7147 194.027 95.08 195.52C95.848 196.373 96.5093 197.355 97.064 198.464C97.6613 199.531 98.1093 200.64 98.408 201.792C98.6213 202.261 98.9627 202.645 99.432 202.944C99.9013 203.2 100.285 203.371 100.584 203.456C100.755 203.499 100.989 203.52 101.288 203.52C101.629 203.52 101.928 203.477 102.184 203.392C102.483 203.264 102.653 203.072 102.696 202.816C102.781 202.603 102.867 202.496 102.952 202.496C103.251 202.496 103.4 202.837 103.4 203.52C103.4 204.032 103.229 204.437 102.888 204.736C102.547 204.992 102.141 205.12 101.672 205.12C101.501 205.12 101.288 205.099 101.032 205.056C100.819 205.013 100.605 204.928 100.392 204.8C99.5813 204.416 99.0053 203.797 98.664 202.944C98.7493 203.371 98.8133 203.797 98.856 204.224C98.8987 204.651 98.92 205.077 98.92 205.504C98.92 206.485 98.792 207.445 98.536 208.384C98.3227 209.365 97.9813 210.261 97.512 211.072C97.5547 211.2 97.576 211.328 97.576 211.456C97.6187 211.584 97.64 211.712 97.64 211.84C97.64 212.395 97.4907 212.928 97.192 213.44C96.8933 213.995 96.424 214.507 95.784 214.976C94.9733 215.488 93.864 215.744 92.456 215.744C92.072 215.744 91.688 215.723 91.304 215.68C90.92 215.637 90.536 215.573 90.152 215.488C89.5973 215.403 88.9787 215.467 88.296 215.68C87.656 215.893 87.272 216.235 87.144 216.704C87.0587 217.003 86.9733 217.216 86.888 217.344C86.8453 217.472 86.7387 217.429 86.568 217.216C86.184 216.704 85.992 216.171 85.992 215.616C85.992 214.549 86.5893 213.632 87.784 212.864C88.9787 212.096 90.408 211.797 92.072 211.968C92.7973 212.011 93.4587 211.968 94.056 211.84C94.6533 211.712 95.1653 211.52 95.592 211.264C95.0373 211.307 94.504 211.2 93.992 210.944C93.48 210.731 93.1813 210.368 93.096 209.856V209.6C93.096 209.088 93.2027 208.725 93.416 208.512C93.544 208.384 93.672 208.32 93.8 208.32C94.0133 208.32 94.0773 208.469 93.992 208.768C93.8213 209.195 93.9493 209.579 94.376 209.92C94.8027 210.261 95.2933 210.432 95.848 210.432C96.232 210.432 96.5733 210.347 96.872 210.176L97 209.984C97.384 209.387 97.64 208.725 97.768 208C97.896 207.275 97.96 206.507 97.96 205.696C97.96 204.075 97.64 202.432 97 200.768C96.36 199.104 95.4853 197.653 94.376 196.416C92.84 194.752 91.0907 193.536 89.128 192.768C87.1653 192 85.1173 191.616 82.984 191.616C79.2293 191.616 75.6667 192.64 72.296 194.688C72.552 194.645 72.7867 194.624 73 194.624C73.256 194.624 73.4907 194.624 73.704 194.624C74.856 194.624 75.752 194.773 76.392 195.072L76.456 195.008C76.7547 194.709 77.2453 194.56 77.928 194.56C78.4827 194.56 79.0587 194.709 79.656 195.008C80.2533 195.307 80.7867 195.755 81.256 196.352C81.7253 196.907 82.1093 197.653 82.408 198.592C82.7067 199.531 82.856 200.427 82.856 201.28C82.856 201.749 82.792 202.197 82.664 202.624C82.5787 203.051 82.408 203.413 82.152 203.712C81.896 204.011 81.6613 204.181 81.448 204.224C81.2773 204.224 81.1493 204.203 81.064 204.16C81.2347 203.947 81.32 203.691 81.32 203.392C81.32 202.88 81.0853 202.411 80.616 201.984C80.1893 201.557 79.7413 201.259 79.272 201.088C78.8453 200.917 78.3973 200.747 77.928 200.576C77.4587 200.363 76.968 199.979 76.456 199.424C75.816 198.784 75.496 197.995 75.496 197.056C75.496 196.501 75.624 196.032 75.88 195.648C75.4107 195.477 74.792 195.392 74.024 195.392C73.384 195.392 72.7013 195.477 71.976 195.648C71.2933 195.776 70.632 196.011 69.992 196.352C67.944 197.931 66.3227 199.829 65.128 202.048C64.104 203.84 63.3573 205.653 62.888 207.488C62.4187 209.28 62.184 211.051 62.184 212.8C62.184 215.616 62.76 218.24 63.912 220.672C65.064 223.104 66.6853 225.109 68.776 226.688C70.9093 228.267 73.3627 229.248 76.136 229.632C76.776 229.717 77.3947 229.781 77.992 229.824C78.632 229.867 79.2507 229.888 79.848 229.888C81.64 229.888 83.3467 229.696 84.968 229.312C86.632 228.971 88.1893 228.48 89.64 227.84C88.744 227.84 87.9333 227.563 87.208 227.008C86.5253 226.453 86.184 225.835 86.184 225.152C86.184 224.555 86.3973 224.128 86.824 223.872C87.2507 223.659 87.6347 223.552 87.976 223.552C88.232 223.552 88.4027 223.595 88.488 223.68C88.616 223.808 88.5307 223.957 88.232 224.128C87.9333 224.299 87.784 224.597 87.784 225.024C87.784 225.493 87.912 225.92 88.168 226.304C88.296 226.56 88.5307 226.837 88.872 227.136C89.2133 227.435 89.64 227.584 90.152 227.584C93.1813 226.133 95.9333 224.149 98.408 221.632C100.925 219.115 103.251 216.235 105.384 212.992C107.517 209.749 109.544 206.357 111.464 202.816C113.427 199.275 115.389 195.755 117.352 192.256C119.229 188.928 121.128 185.835 123.048 182.976C125.011 180.075 127.016 177.557 129.064 175.424C131.155 173.291 133.309 171.691 135.528 170.624C133.821 170.539 131.944 170.389 129.896 170.176C127.891 169.963 125.928 169.771 124.008 169.6C122.088 169.387 120.381 169.28 118.888 169.28C115.304 169.28 112.424 169.835 110.248 170.944C108.072 172.011 106.472 173.355 105.448 174.976C104.467 176.597 103.976 178.24 103.976 179.904C103.976 181.739 104.509 183.339 105.576 184.704C106.685 186.027 108.157 186.688 109.992 186.688C111.229 186.688 112.403 186.347 113.512 185.664C114.664 184.981 115.581 184.085 116.264 182.976C116.989 181.824 117.331 180.565 117.288 179.2C117.245 178.773 117.117 178.347 116.904 177.92C116.691 177.451 116.371 177.067 115.944 176.768C115.389 176.256 114.771 176 114.088 176C113.704 176 113.427 176.107 113.256 176.32C113.128 176.448 113.021 176.512 112.936 176.512C112.765 176.512 112.68 176.363 112.68 176.064C112.68 175.851 112.701 175.68 112.744 175.552C113.085 174.528 113.704 174.016 114.6 174.016C115.453 174.016 116.221 174.464 116.904 175.36C117.245 175.787 117.48 176.384 117.608 177.152C117.779 177.92 117.864 178.624 117.864 179.264C117.864 179.52 117.864 179.776 117.864 180.032C117.864 180.288 117.843 180.544 117.8 180.8C117.928 180.587 118.056 180.395 118.184 180.224C118.355 180.011 118.547 179.84 118.76 179.712C119.144 179.456 119.549 179.328 119.976 179.328C120.403 179.328 120.765 179.456 121.064 179.712C121.363 179.968 121.512 180.331 121.512 180.8C121.512 181.141 121.427 181.376 121.256 181.504C121.128 181.589 121.043 181.504 121 181.248C120.915 180.907 120.573 180.736 119.976 180.736C119.848 180.736 119.72 180.757 119.592 180.8C119.464 180.8 119.336 180.821 119.208 180.864C118.909 180.949 118.568 181.163 118.184 181.504C117.843 181.803 117.544 182.187 117.288 182.656C116.605 184.192 115.517 185.365 114.024 186.176C112.573 186.987 110.995 187.392 109.288 187.392C107.837 187.392 106.557 187.115 105.448 186.56C104.381 186.005 103.485 185.259 102.76 184.32C102.76 184.491 102.76 184.661 102.76 184.832C102.76 185.003 102.739 185.173 102.696 185.344C102.568 185.984 102.269 186.496 101.8 186.88C101.971 187.179 102.056 187.541 102.056 187.968C102.056 188.267 101.992 188.608 101.864 188.992C101.736 189.376 101.523 189.739 101.224 190.08C100.84 190.507 100.285 190.891 99.56 191.232C98.8347 191.573 98.1307 191.744 97.448 191.744C97.0213 191.744 96.6373 191.637 96.296 191.424C96.0827 191.296 95.9547 191.168 95.912 191.04C95.8693 190.869 95.848 190.763 95.848 190.72C96.3173 190.933 96.744 190.827 97.128 190.4C97.512 189.973 97.7253 189.568 97.768 189.184C97.8533 188.885 97.9387 188.565 98.024 188.224C98.1093 187.883 98.3013 187.499 98.6 187.072C99.0693 186.475 99.688 186.176 100.456 186.176C100.883 186.176 101.245 186.304 101.544 186.56C101.715 186.389 101.843 186.176 101.928 185.92C102.056 185.664 102.141 185.387 102.184 185.088V184.576C102.184 184.363 102.163 184.128 102.12 183.872C102.12 183.616 102.099 183.381 102.056 183.168C101.757 182.571 101.544 181.931 101.416 181.248C101.288 180.565 101.245 179.861 101.288 179.136L101.224 179.2C101.053 179.371 100.861 179.499 100.648 179.584C100.435 179.627 100.221 179.648 100.008 179.648C99.24 179.648 98.792 179.285 98.664 178.56C98.6213 178.347 98.6427 178.197 98.728 178.112C98.856 177.984 98.9627 178.027 99.048 178.24C99.176 178.453 99.3893 178.56 99.688 178.56C99.944 178.56 100.243 178.475 100.584 178.304C100.925 178.176 101.267 177.835 101.608 177.28C102.035 175.787 102.888 174.379 104.168 173.056C105.448 171.691 107.197 170.581 109.416 169.728C111.635 168.875 114.387 168.448 117.672 168.448C118.909 168.448 120.424 168.512 122.216 168.64C124.051 168.768 125.971 168.917 127.976 169.088C129.981 169.259 131.859 169.408 133.608 169.536C135.357 169.664 136.765 169.728 137.832 169.728C138.856 169.429 139.965 169.28 141.16 169.28C142.056 169.28 142.504 169.429 142.504 169.728C142.504 170.027 142.056 170.176 141.16 170.176C138.344 170.304 135.528 171.904 132.712 174.976C130.536 177.365 128.595 179.989 126.888 182.848C125.181 185.707 123.581 188.693 122.088 191.808C120.637 194.88 119.165 197.995 117.672 201.152C116.221 204.267 114.643 207.296 112.936 210.24C111.229 213.227 109.288 216 107.112 218.56C103.613 222.699 99.7307 225.899 95.464 228.16C91.1973 230.421 86.4187 231.552 81.128 231.552C80.2747 231.552 79.4 231.531 78.504 231.488C77.6507 231.445 76.776 231.339 75.88 231.168L73.768 230.784C73.0853 230.827 72.5093 231.019 72.04 231.36C71.656 231.659 71.336 232 71.08 232.384C70.8667 232.768 70.8667 233.088 71.08 233.344C71.1653 233.429 71.208 233.515 71.208 233.6C71.208 233.728 71.1013 233.792 70.888 233.792ZM127.051 208.896C126.07 208.896 125.152 208.661 124.299 208.192C123.488 207.723 122.87 206.955 122.443 205.888C122.144 205.163 121.995 204.245 121.995 203.136C121.995 201.728 122.251 200.299 122.763 198.848C123.531 196.587 124.619 194.603 126.027 192.896C127.435 191.147 128.992 189.781 130.699 188.8C132.448 187.776 134.198 187.264 135.947 187.264C137.526 187.264 138.678 187.691 139.403 188.544C140.128 189.397 140.491 190.485 140.491 191.808C140.491 192.576 140.384 193.387 140.171 194.24C140 195.093 139.766 195.947 139.467 196.8C139.04 197.995 138.486 199.083 137.803 200.064C137.12 201.045 136.544 201.813 136.075 202.368C137.014 202.88 137.974 202.923 138.955 202.496C139.979 202.027 140.918 201.344 141.771 200.448C142.624 199.509 143.307 198.635 143.819 197.824C143.904 197.653 144.011 197.547 144.139 197.504C144.31 197.461 144.416 197.44 144.459 197.44C144.886 197.44 144.971 197.696 144.715 198.208C143.307 200.512 141.75 202.133 140.043 203.072C138.336 203.968 136.822 204.011 135.499 203.2L135.371 203.392C134.731 204.331 134.027 205.205 133.259 206.016C132.491 206.784 131.638 207.424 130.699 207.936C130.144 208.235 129.547 208.469 128.907 208.64C128.267 208.811 127.648 208.896 127.051 208.896ZM127.627 207.808C128.523 207.808 129.483 207.531 130.507 206.976C131.403 206.464 132.214 205.824 132.939 205.056C133.707 204.288 134.326 203.563 134.795 202.88C134.326 202.667 133.92 202.283 133.579 201.728C133.238 201.131 133.067 200.405 133.067 199.552C133.067 198.656 133.238 197.696 133.579 196.672C133.963 195.605 134.475 194.709 135.115 193.984C135.798 193.259 136.544 192.896 137.355 192.896C137.867 192.896 138.272 193.024 138.571 193.28C138.912 193.536 139.083 193.835 139.083 194.176C139.168 193.963 139.232 193.643 139.275 193.216C139.36 192.789 139.403 192.32 139.403 191.808C139.403 190.699 139.19 189.909 138.763 189.44C138.336 188.928 137.76 188.672 137.035 188.672C136.736 188.672 136.416 188.715 136.075 188.8C135.776 188.885 135.456 188.992 135.115 189.12C133.536 189.76 131.915 190.955 130.251 192.704C128.63 194.453 127.392 196.395 126.539 198.528C126.198 199.381 125.878 200.384 125.579 201.536C125.28 202.688 125.131 203.755 125.131 204.736C125.131 205.845 125.366 206.635 125.835 207.104C126.347 207.573 126.944 207.808 127.627 207.808ZM155.993 208.704C155.14 208.704 154.393 208.405 153.753 207.808C153.113 207.211 152.793 206.357 152.793 205.248C152.793 204.779 152.9 204.16 153.113 203.392C152.516 204.117 151.812 204.885 151.001 205.696C150.233 206.507 149.38 207.189 148.441 207.744C147.545 208.299 146.628 208.576 145.689 208.576C145.177 208.576 144.729 208.491 144.345 208.32C143.662 208.064 143.172 207.659 142.873 207.104C142.617 206.507 142.489 205.867 142.489 205.184C142.489 203.989 142.724 202.752 143.193 201.472C143.705 200.192 144.153 199.189 144.537 198.464C144.494 198.507 144.43 198.528 144.345 198.528C144.174 198.528 144.004 198.464 143.833 198.336C143.705 198.165 143.705 197.995 143.833 197.824C144.132 197.44 144.58 196.8 145.177 195.904C145.817 195.008 146.521 194.027 147.289 192.96C148.057 191.893 148.761 190.891 149.401 189.952C150.084 189.013 150.596 188.288 150.937 187.776C151.278 187.691 151.769 187.563 152.409 187.392C153.092 187.179 153.71 187.072 154.265 187.072C154.905 187.072 155.374 187.243 155.673 187.584C155.204 188.309 154.542 189.269 153.689 190.464C152.836 191.659 151.897 192.96 150.873 194.368C149.892 195.776 148.953 197.227 148.057 198.72C147.161 200.213 146.414 201.643 145.817 203.008C145.262 204.331 144.985 205.483 144.985 206.464C144.985 207.189 145.369 207.552 146.137 207.552C147.033 207.509 148.078 206.955 149.273 205.888C150.51 204.779 151.769 203.392 153.049 201.728C154.372 200.064 155.63 198.357 156.825 196.608C158.745 193.707 160.238 191.445 161.305 189.824C162.372 188.203 162.905 187.392 162.905 187.392C163.246 187.349 163.716 187.243 164.313 187.072C164.953 186.859 165.55 186.752 166.105 186.752C166.745 186.752 167.15 186.944 167.321 187.328C167.022 187.797 166.404 188.672 165.465 189.952C164.569 191.232 163.545 192.704 162.393 194.368C161.284 196.032 160.217 197.717 159.193 199.424C158.852 199.979 158.468 200.64 158.041 201.408C157.614 202.133 157.23 202.795 156.889 203.392C156.505 204.075 156.249 204.629 156.121 205.056C156.036 205.483 155.993 205.824 155.993 206.08C155.993 206.933 156.42 207.36 157.273 207.36C157.742 207.36 158.318 207.189 159.001 206.848C159.684 206.464 160.324 205.952 160.921 205.312C161.732 204.544 162.542 203.605 163.353 202.496C164.206 201.344 165.188 199.787 166.297 197.824C166.382 197.653 166.574 197.568 166.873 197.568C167.086 197.568 167.214 197.653 167.257 197.824C167.3 197.952 167.278 198.08 167.193 198.208C166.382 199.531 165.593 200.811 164.825 202.048C164.1 203.243 163.204 204.416 162.137 205.568C161.156 206.635 160.11 207.424 159.001 207.936C157.934 208.448 156.932 208.704 155.993 208.704ZM172.223 208.64C171.369 208.64 170.601 208.384 169.919 207.872C169.279 207.36 168.959 206.635 168.959 205.696C168.959 204.629 169.236 203.477 169.791 202.24C170.388 201.003 171.028 199.893 171.711 198.912C172.393 197.888 172.841 197.227 173.055 196.928C173.823 195.904 174.527 194.859 175.167 193.792C175.849 192.683 176.191 191.787 176.191 191.104C176.191 190.464 175.913 190.059 175.359 189.888C174.889 189.717 174.399 189.547 173.887 189.376C173.375 189.163 172.991 189.035 172.735 188.992C172.607 189.205 172.308 189.717 171.839 190.528C171.369 191.296 170.815 192.192 170.175 193.216C169.577 194.197 169.001 195.157 168.447 196.096C167.892 197.035 167.465 197.739 167.167 198.208C166.911 198.507 166.697 198.656 166.527 198.656C166.356 198.656 166.228 198.571 166.143 198.4C166.1 198.229 166.143 198.037 166.271 197.824C167.551 195.819 168.681 193.941 169.663 192.192C170.644 190.443 171.284 189.333 171.583 188.864C171.156 188.565 170.815 188.053 170.559 187.328C170.303 186.603 170.175 185.856 170.175 185.088C170.175 184.235 170.345 183.467 170.687 182.784C171.028 182.101 171.604 181.76 172.415 181.76C172.969 181.76 173.353 182.037 173.567 182.592C173.78 183.104 173.887 183.701 173.887 184.384C173.887 184.981 173.823 185.557 173.695 186.112C173.567 186.667 173.46 187.051 173.375 187.264L172.927 188.288C173.439 188.331 174.207 188.416 175.231 188.544C176.255 188.672 177.321 188.821 178.431 188.992C179.071 189.077 179.583 189.312 179.967 189.696C180.393 190.08 180.607 190.592 180.607 191.232C180.607 191.872 180.393 192.64 179.967 193.536C179.54 194.432 178.815 195.456 177.791 196.608C177.279 197.205 176.66 197.995 175.935 198.976C175.209 199.957 174.527 200.917 173.887 201.856C173.247 202.752 172.777 203.456 172.479 203.968C171.924 204.864 171.647 205.675 171.647 206.4C171.647 207.211 172.095 207.616 172.991 207.616C173.972 207.616 175.017 207.253 176.127 206.528C177.236 205.76 178.324 204.821 179.391 203.712C180.457 202.603 181.396 201.515 182.207 200.448C183.06 199.339 183.679 198.464 184.063 197.824C184.233 197.525 184.468 197.376 184.767 197.376C184.98 197.376 185.087 197.483 185.087 197.696C185.087 197.909 185.044 198.08 184.959 198.208C184.532 198.848 183.828 199.808 182.847 201.088C181.908 202.368 180.777 203.669 179.455 204.992C178.132 206.272 176.66 207.275 175.039 208C174.527 208.213 174.015 208.363 173.503 208.448C172.991 208.576 172.564 208.64 172.223 208.64ZM199.507 208.896C198.483 208.896 197.608 208.576 196.883 207.936C196.158 207.253 195.795 206.293 195.795 205.056C195.795 203.563 196.222 202.027 197.075 200.448C197.928 198.827 198.931 197.227 200.083 195.648C201.235 194.069 202.238 192.619 203.091 191.296C203.56 190.485 203.795 189.824 203.795 189.312C203.795 188.715 203.518 188.416 202.963 188.416C202.536 188.416 201.896 188.693 201.043 189.248C200.19 189.76 199.102 190.656 197.779 191.936C196.499 193.216 195.262 194.645 194.067 196.224C192.915 197.76 191.848 199.296 190.867 200.832C189.928 202.368 189.096 203.776 188.371 205.056C187.688 206.336 187.176 207.317 186.835 208C186.536 208.128 186.152 208.213 185.683 208.256C185.256 208.299 184.808 208.32 184.339 208.32C183.272 208.32 182.568 208.256 182.227 208.128C182.782 207.36 183.507 206.293 184.403 204.928C185.342 203.563 186.323 202.091 187.347 200.512C188.371 198.891 189.31 197.376 190.163 195.968C190.632 195.157 191.144 194.283 191.699 193.344C192.254 192.405 192.723 191.531 193.107 190.72C193.491 189.867 193.683 189.227 193.683 188.8C193.683 188.373 193.512 188.16 193.171 188.16C192.958 188.16 192.68 188.267 192.339 188.48C191.998 188.693 191.678 188.971 191.379 189.312C190.739 189.952 189.907 190.955 188.883 192.32C187.902 193.643 186.6 195.605 184.979 198.208C184.851 198.421 184.638 198.528 184.339 198.528C183.998 198.528 183.912 198.293 184.083 197.824C184.851 196.587 185.64 195.349 186.451 194.112C187.262 192.832 188.072 191.637 188.883 190.528C189.736 189.419 190.526 188.544 191.251 187.904C192.019 187.221 192.83 186.88 193.683 186.88C194.494 186.88 195.112 187.157 195.539 187.712C195.966 188.267 196.179 188.907 196.179 189.632C196.179 190.485 195.987 191.424 195.603 192.448C195.774 192.277 195.923 192.107 196.051 191.936C196.222 191.765 196.392 191.595 196.563 191.424C198.056 189.845 199.507 188.693 200.915 187.968C202.366 187.2 203.624 186.816 204.691 186.816C205.502 186.816 206.184 187.029 206.739 187.456C207.336 187.883 207.635 188.459 207.635 189.184C207.635 190.037 207.336 191.061 206.739 192.256C206.142 193.451 205.459 194.581 204.691 195.648C203.966 196.715 203.368 197.547 202.899 198.144C202.6 198.571 202.024 199.36 201.171 200.512C200.318 201.621 199.592 202.773 198.995 203.968C198.696 204.48 198.483 204.949 198.355 205.376C198.27 205.76 198.227 206.123 198.227 206.464C198.227 207.445 198.675 207.936 199.571 207.936C200.552 207.936 201.768 207.36 203.219 206.208C204.371 205.312 205.544 204.16 206.739 202.752C207.976 201.301 209.15 199.659 210.259 197.824C210.387 197.611 210.515 197.504 210.643 197.504C210.771 197.461 210.856 197.44 210.899 197.44C211.198 197.44 211.283 197.696 211.155 198.208C209.918 200.171 208.616 201.984 207.251 203.648C205.928 205.312 204.584 206.635 203.219 207.616C201.982 208.469 200.744 208.896 199.507 208.896ZM214.687 208.576C213.577 208.576 212.532 208.32 211.551 207.808C210.569 207.253 209.844 206.379 209.375 205.184C209.076 204.416 208.927 203.541 208.927 202.56C208.927 201.365 209.161 200.192 209.631 199.04C210.228 197.632 211.103 196.245 212.255 194.88C213.407 193.515 214.687 192.277 216.095 191.168C217.503 190.059 218.911 189.184 220.319 188.544C221.727 187.861 222.985 187.52 224.095 187.52C225.033 187.52 225.78 187.776 226.335 188.288C226.719 188.672 226.911 189.227 226.911 189.952C226.911 190.891 226.548 191.979 225.823 193.216C225.14 194.411 224.159 195.456 222.878 196.352C222.068 196.907 221.108 197.376 219.999 197.76C218.932 198.101 217.801 198.272 216.607 198.272C216.223 198.272 215.817 198.251 215.391 198.208C215.007 198.165 214.623 198.101 214.239 198.016C213.94 198.357 213.577 198.912 213.151 199.68C212.767 200.405 212.425 201.216 212.127 202.112C211.871 203.008 211.743 203.861 211.743 204.672C211.785 205.781 212.084 206.571 212.639 207.04C213.236 207.467 213.94 207.68 214.751 207.68C216.372 207.68 217.929 207.168 219.423 206.144C220.959 205.077 222.345 203.776 223.583 202.24C224.82 200.704 225.865 199.232 226.719 197.824C226.847 197.653 226.953 197.568 227.039 197.568C227.124 197.525 227.188 197.504 227.231 197.504C227.359 197.504 227.465 197.568 227.551 197.696C227.679 197.824 227.7 197.995 227.615 198.208C227.06 199.104 226.335 200.171 225.439 201.408C224.585 202.645 223.561 203.84 222.367 204.992C221.215 206.101 219.913 207.019 218.463 207.744C217.908 208.043 217.289 208.256 216.607 208.384C215.967 208.512 215.327 208.576 214.687 208.576ZM216.031 197.376C218.036 197.376 219.849 196.864 221.471 195.84C223.135 194.773 224.329 193.493 225.055 192C225.268 191.659 225.396 191.339 225.439 191.04C225.524 190.741 225.567 190.507 225.567 190.336C225.567 189.611 225.161 189.248 224.351 189.248C223.839 189.248 223.263 189.376 222.623 189.632C222.025 189.888 221.492 190.187 221.023 190.528C220.212 191.125 219.359 191.872 218.463 192.768C217.609 193.621 216.841 194.475 216.159 195.328C215.476 196.139 214.964 196.779 214.623 197.248C214.836 197.291 215.071 197.333 215.327 197.376C215.583 197.376 215.817 197.376 216.031 197.376ZM216.532 232.896C215.337 232.896 214.377 232.576 213.652 231.936C212.884 231.339 212.5 230.485 212.5 229.376C212.5 228.864 212.607 228.288 212.82 227.648C213.033 227.051 213.375 226.432 213.844 225.792C214.697 224.597 215.956 223.253 217.62 221.76C219.241 220.309 220.948 218.923 222.74 217.6C224.703 216.107 226.58 214.784 228.372 213.632C230.207 212.523 231.743 211.627 232.98 210.944C234.26 210.304 235.007 209.941 235.22 209.856C235.263 209.813 235.519 209.152 235.988 207.872C236.5 206.549 237.161 204.907 237.972 202.944C238.783 200.981 239.679 199.019 240.66 197.056C240.191 197.739 239.657 198.507 239.06 199.36C238.505 200.213 237.951 201.003 237.396 201.728C236.884 202.453 236.457 203.008 236.116 203.392C235.519 204.117 234.815 204.885 234.004 205.696C233.193 206.507 232.319 207.189 231.38 207.744C230.484 208.299 229.567 208.576 228.628 208.576C227.604 208.576 226.815 208.277 226.26 207.68C225.705 207.083 225.428 206.251 225.428 205.184C225.428 203.989 225.663 202.752 226.132 201.472C226.644 200.192 227.092 199.189 227.476 198.464C227.433 198.507 227.369 198.528 227.284 198.528C227.113 198.528 226.964 198.443 226.836 198.272C226.708 198.101 226.687 197.952 226.772 197.824C227.113 197.312 227.625 196.629 228.308 195.776C228.991 194.88 229.716 193.92 230.484 192.896C231.252 191.872 231.977 190.891 232.66 189.952C233.343 189.013 233.876 188.267 234.26 187.712C234.601 187.627 235.049 187.499 235.604 187.328C236.159 187.157 236.713 187.072 237.268 187.072C237.865 187.072 238.313 187.243 238.612 187.584C238.143 188.309 237.481 189.269 236.628 190.464C235.775 191.659 234.836 192.96 233.812 194.368C232.831 195.776 231.892 197.227 230.996 198.72C230.1 200.213 229.353 201.643 228.756 203.008C228.201 204.331 227.924 205.483 227.924 206.464C227.924 207.189 228.308 207.552 229.076 207.552C229.972 207.509 231.017 206.955 232.212 205.888C233.449 204.779 234.729 203.392 236.052 201.728C237.375 200.064 238.612 198.357 239.764 196.608C241.257 194.389 242.537 192.64 243.604 191.36C244.671 190.08 245.417 189.205 245.844 188.736C246.271 188.267 246.676 187.84 247.06 187.456C247.444 187.029 247.807 186.667 248.148 186.368C248.745 185.899 249.343 185.664 249.94 185.664C250.409 185.664 250.793 185.792 251.092 186.048C251.433 186.261 251.604 186.517 251.604 186.816C251.604 187.115 251.391 187.392 250.964 187.648C249.641 188.331 248.404 189.099 247.252 189.952C246.1 190.763 245.076 191.765 244.18 192.96C243.241 194.197 242.431 195.797 241.748 197.76C241.108 199.68 240.553 201.6 240.084 203.52C239.657 205.44 239.252 207.04 238.868 208.32C239.551 207.893 240.489 207.168 241.684 206.144C242.921 205.077 244.201 203.819 245.524 202.368C246.847 200.875 247.977 199.317 248.916 197.696C249.129 197.483 249.3 197.376 249.428 197.376C249.556 197.376 249.663 197.44 249.748 197.568C249.876 197.653 249.919 197.76 249.876 197.888C248.681 199.979 247.316 201.877 245.78 203.584C244.244 205.291 242.815 206.677 241.492 207.744C240.169 208.811 239.209 209.472 238.612 209.728C237.716 212.288 236.521 214.997 235.028 217.856C233.577 220.757 231.7 223.488 229.396 226.048C228.415 227.157 227.199 228.224 225.748 229.248C224.297 230.315 222.761 231.189 221.14 231.872C219.519 232.555 217.983 232.896 216.532 232.896ZM216.148 231.872C217.129 231.872 218.303 231.381 219.668 230.4C220.991 229.419 222.377 228.139 223.828 226.56C225.321 224.981 226.772 223.275 228.18 221.44C229.588 219.605 230.868 217.813 232.02 216.064C233.172 214.315 234.089 212.779 234.772 211.456C234.175 211.755 233.257 212.267 232.02 212.992C230.783 213.76 229.375 214.656 227.796 215.68C226.217 216.747 224.617 217.899 222.996 219.136C221.417 220.373 219.945 221.611 218.58 222.848C217.172 224.128 216.063 225.344 215.252 226.496C214.399 227.648 213.972 228.693 213.972 229.632C213.972 230.315 214.164 230.848 214.548 231.232C214.932 231.659 215.465 231.872 216.148 231.872Z" fill="#FF2C78"/>
<path d="M121.55 106.837C121.55 109.26 122.267 110.591 123.701 110.83C123.598 111.308 123.206 111.547 122.523 111.547C121.124 111.547 120.134 110.711 119.554 109.038C119.281 108.253 119.144 107.298 119.144 106.171C119.144 105.045 119.588 103.679 120.475 102.075C122.523 98.3547 126.278 95.9483 131.739 94.856C133.685 94.4805 135.818 94.2928 138.139 94.2928C140.46 94.2928 142.559 94.0197 144.437 93.4736C146.348 92.9275 147.748 92.3131 148.635 91.6304C149.557 90.9477 150.41 90.3333 151.195 89.7872C152.014 89.2411 152.68 88.968 153.192 88.968C153.738 88.968 154.011 89.2069 154.011 89.6848C154.011 90.8112 152.902 91.9547 150.683 93.1152C148.465 94.2757 145.58 95.0267 142.03 95.368C140.563 96.1531 139.419 98.9349 138.6 103.714C137.678 109.209 136.91 113.698 136.296 117.179C135.682 120.661 134.948 123.647 134.094 126.139C133.275 128.597 132.337 130.781 131.278 132.693C130.22 134.57 128.821 136.072 127.08 137.198C125.373 138.359 123.359 138.939 121.038 138.939C118.751 138.939 116.891 138.188 115.458 136.686C113.887 135.048 113.102 132.829 113.102 130.03C113.102 125.354 114.348 121.77 116.84 119.278C118.342 117.777 120.014 117.026 121.858 117.026C122.301 117.026 122.66 117.128 122.933 117.333C123.24 117.538 123.445 117.845 123.547 118.254C120.646 118.254 118.291 119.756 116.482 122.76C115.15 124.979 114.485 127.283 114.485 129.672C114.485 133.597 115.833 135.987 118.53 136.84C119.144 137.045 119.81 137.147 120.526 137.147C122.643 137.147 124.486 136.277 126.056 134.536C127.66 132.795 128.872 130.594 129.691 127.931C130.545 125.269 131.347 122.282 132.098 118.971C132.883 115.626 133.531 112.452 134.043 109.448C134.555 106.444 135.238 103.645 136.091 101.051C136.979 98.4229 137.986 96.5797 139.112 95.5216H138.088C131.091 95.5216 126.21 97.4843 123.445 101.41C122.182 103.185 121.55 104.994 121.55 106.837ZM152.62 118.152C150.811 121.429 149.394 124.33 148.37 126.856C147.38 129.382 146.885 130.884 146.885 131.362C146.885 131.805 146.646 132.027 146.168 132.027C145.144 132.027 144.632 130.662 144.632 127.931C144.632 122.504 145.179 117.06 146.271 111.598C147.363 106.103 148.66 101.717 150.162 98.44C151.664 95.1291 153.063 93.4736 154.36 93.4736C154.907 93.4736 155.18 93.7467 155.18 94.2928C153.371 98.2864 151.852 102.843 150.623 107.963C149.428 113.083 148.421 118.545 147.602 124.347H147.96C152.295 113.698 156.545 108.373 160.709 108.373C162.45 108.373 163.32 109.209 163.32 110.882C163.081 111.667 162.774 112.708 162.399 114.005C162.023 115.268 161.528 117.555 160.914 120.866C160.3 124.177 159.992 127.078 159.992 129.57C159.992 133.188 160.521 134.997 161.58 134.997C161.955 134.997 162.331 134.826 162.706 134.485C163.081 134.178 163.337 134.024 163.474 134.024C163.952 134.024 163.935 134.399 163.423 135.15C163.286 135.389 162.979 135.714 162.501 136.123C162.057 136.533 161.614 136.738 161.17 136.738C159.839 136.738 158.798 135.799 158.047 133.922C157.33 132.078 156.972 129.672 156.972 126.702C156.972 121.685 157.723 116.514 159.224 111.189C159.293 110.677 159.088 110.455 158.61 110.523C158.371 110.557 158.132 110.694 157.893 110.933C156.187 112.469 154.429 114.875 152.62 118.152ZM180.039 108.168C182.634 108.168 183.931 109.687 183.931 112.725C183.931 114.466 183.35 116.292 182.19 118.203C180.21 121.378 177.582 122.965 174.305 122.965C173.793 122.965 173.366 122.879 173.025 122.709C172.684 122.538 172.428 122.282 172.257 121.941C174.68 121.941 176.899 120.541 178.913 117.742C180.551 115.49 181.371 113.425 181.371 111.547C181.371 110.148 180.807 109.448 179.681 109.448C177.428 109.448 175.329 111.206 173.383 114.722C171.301 118.545 170.26 122.47 170.26 126.498C170.26 129.911 171.233 131.959 173.179 132.642C173.554 132.778 174.032 132.846 174.612 132.846C175.192 132.846 175.807 132.71 176.455 132.437C177.104 132.13 177.65 131.771 178.094 131.362C178.981 130.542 179.715 129.638 180.295 128.648C180.432 128.375 180.688 128.238 181.063 128.238C181.678 128.238 181.968 128.341 181.934 128.546C181.831 128.921 181.439 129.553 180.756 130.44C180.108 131.327 179.493 132.044 178.913 132.59C178.367 133.102 177.633 133.563 176.711 133.973C175.824 134.417 174.919 134.638 173.998 134.638C170.38 134.638 168.076 132.932 167.086 129.518C166.779 128.358 166.625 127.163 166.625 125.934C166.625 123.647 167.154 121.156 168.212 118.459C169.885 114.363 172.189 111.411 175.124 109.602C176.728 108.646 178.367 108.168 180.039 108.168Z" fill="white"/>
<path d="M82.6448 268.683C82.6448 268.82 82.4912 268.905 82.184 268.939C81.9109 268.973 81.6208 268.922 81.3136 268.786C81.0405 268.649 80.904 268.461 80.904 268.222C80.904 264.741 81.2965 261.942 82.0816 259.826C82.8667 257.675 83.8907 256.6 85.1536 256.6C85.4949 256.6 85.7851 256.719 86.024 256.958C86.2629 257.197 86.3824 257.522 86.3824 257.931C84.8123 259.501 83.7029 261.788 83.0544 264.792C82.7813 266.021 82.6448 267.318 82.6448 268.683ZM79.5728 257.829C74.8624 257.829 70.6469 260.577 66.9264 266.072C63.7179 270.817 61.6187 276.346 60.6288 282.661C60.2875 284.743 60.1168 286.654 60.1168 288.395C60.1168 291.74 60.7312 294.42 61.96 296.434C63.1888 298.482 64.9125 299.506 67.1312 299.506C70.1349 299.506 72.6949 297.782 74.8112 294.334C76.2448 292.013 76.9616 289.965 76.9616 288.19C76.9616 287.405 76.7568 287.013 76.3472 287.013C76.552 286.228 77.064 285.835 77.8832 285.835C78.8389 285.835 79.3168 286.518 79.3168 287.883C79.3168 290.443 78.1904 293.174 75.9376 296.075C73.2411 299.523 70.0837 301.246 66.4656 301.246C61.9259 301.246 58.8539 298.977 57.2496 294.437C56.4645 292.321 56.072 289.931 56.072 287.269C56.072 284.572 56.5157 281.569 57.4032 278.258C59.1099 271.704 61.9771 266.26 66.0048 261.925C70.0667 257.59 74.5552 255.405 79.4704 255.371C80.1531 255.371 80.648 255.593 80.9552 256.037C81.2624 256.481 81.3989 256.907 81.3648 257.317V257.982C81.0917 257.88 80.4944 257.829 79.5728 257.829ZM90.2976 295.461C86.0992 295.461 84 292.577 84 286.808C84 283.565 84.8192 280.323 86.4576 277.08C88.5397 272.984 91.0144 270.936 93.8816 270.936C94.2912 270.936 94.6325 271.038 94.9056 271.243C95.1787 271.448 95.3664 271.755 95.4688 272.165C93.3184 272.165 91.4581 273.889 89.888 277.336C88.3179 280.783 87.5328 284.18 87.5328 287.525C87.5328 291.587 88.6421 293.618 90.8608 293.618C92.1237 293.618 93.4379 292.662 94.8032 290.75C96.1685 288.805 97.2949 286.262 98.1824 283.122C99.104 279.981 99.5648 276.824 99.5648 273.65V273.035C98.5067 272.353 97.6363 271.499 96.9536 270.475C96.2709 269.451 95.9296 268.7 95.9296 268.222C95.9296 267.745 96.1344 267.301 96.544 266.891C96.9877 266.447 97.4315 266.226 97.8752 266.226C98.5237 266.226 99.1552 266.806 99.7696 267.966C100.384 269.127 100.811 270.441 101.05 271.909C102.108 272.626 103.029 272.984 103.814 272.984C104.634 272.984 105.282 272.847 105.76 272.574C105.76 273.052 105.589 273.479 105.248 273.854C104.907 274.23 104.378 274.418 103.661 274.418C102.944 274.418 102.125 274.247 101.203 273.906C101.169 277.182 100.674 280.476 99.7184 283.787C98.7627 287.098 97.4315 289.88 95.7248 292.133C94.0181 294.351 92.2091 295.461 90.2976 295.461ZM109.067 286.706C113.471 275.817 117.754 270.373 121.919 270.373C123.659 270.373 124.53 271.209 124.53 272.882C124.291 273.667 123.984 274.708 123.608 276.005C123.233 277.268 122.721 279.555 122.072 282.866C121.458 286.177 121.151 289.078 121.151 291.57C121.151 295.188 121.68 296.997 122.738 296.997C123.147 296.997 123.54 296.826 123.915 296.485C124.291 296.178 124.547 296.024 124.683 296.024C125.161 296.024 125.161 296.399 124.683 297.15C124.513 297.389 124.188 297.714 123.711 298.123C123.267 298.533 122.806 298.738 122.328 298.738C121.031 298.738 120.007 297.799 119.256 295.922C118.539 294.078 118.181 291.672 118.181 288.702C118.181 283.992 118.915 278.821 120.383 273.189C120.519 272.745 120.383 272.523 119.973 272.523C119.7 272.523 119.393 272.66 119.051 272.933C117.413 274.366 115.689 276.739 113.88 280.05C112.071 283.361 110.655 286.33 109.631 288.958C108.607 291.553 108.095 293.071 108.095 293.515C108.095 293.925 107.856 294.13 107.378 294.13C106.286 294.13 105.739 292.781 105.739 290.085C105.739 284.999 106.251 280.391 107.275 276.261C108.334 272.131 109.596 270.066 111.064 270.066C111.679 270.066 111.986 270.441 111.986 271.192C110.416 276.278 109.289 281.449 108.607 286.706H109.067ZM131.083 272.83C129.752 272.83 129.086 272.284 129.086 271.192C129.086 270.782 129.257 270.526 129.599 270.424C129.633 270.39 129.684 270.373 129.752 270.373C129.957 270.612 130.332 270.731 130.878 270.731C131.459 270.731 132.363 270.697 133.592 270.629C135.196 266.294 136.732 264.126 138.2 264.126C138.78 264.126 139.07 264.451 139.07 265.099C138.524 266.465 137.91 268.222 137.227 270.373C140.606 269.997 142.808 269.81 143.832 269.81C144.105 269.81 144.242 269.946 144.242 270.219C144.242 270.765 143.883 271.038 143.167 271.038C142.791 271.038 140.624 271.397 136.664 272.114C133.968 280.647 132.619 287.559 132.619 292.85C132.619 298.14 133.677 300.786 135.794 300.786C136.647 300.786 137.449 300.41 138.2 299.659C138.951 298.942 139.48 298.226 139.787 297.509C139.924 297.133 140.214 297.031 140.658 297.202C140.862 297.27 140.931 297.372 140.862 297.509C140.658 297.953 140.402 298.465 140.094 299.045C139.787 299.625 139.19 300.342 138.302 301.195C137.415 302.049 136.51 302.475 135.589 302.475C131.527 302.475 129.496 298.942 129.496 291.877C129.496 285.903 130.605 279.521 132.824 272.728C132.346 272.796 131.766 272.83 131.083 272.83ZM144.206 290.648C144.206 285.596 144.718 281.091 145.742 277.131C146.8 273.172 148.132 271.192 149.736 271.192C150.521 271.192 150.913 271.619 150.913 272.472C150.572 273.359 150.145 274.537 149.633 276.005C149.121 277.473 148.439 280.135 147.585 283.992C146.766 287.815 146.357 291.228 146.357 294.232C146.357 294.71 146.101 294.949 145.589 294.949C144.667 294.949 144.206 293.515 144.206 290.648ZM151.067 266.379C150.35 266.379 149.992 265.697 149.992 264.331C149.992 263.512 150.214 262.659 150.657 261.771C151.101 260.85 151.733 260.389 152.552 260.389C153.234 260.389 153.576 260.781 153.576 261.566C153.576 262.351 152.944 263.666 151.681 265.509L151.067 266.379ZM158.005 286.706C162.408 275.817 166.692 270.373 170.856 270.373C172.597 270.373 173.467 271.209 173.467 272.882C173.228 273.667 172.921 274.708 172.546 276.005C172.17 277.268 171.658 279.555 171.01 282.866C170.395 286.177 170.088 289.078 170.088 291.57C170.088 295.188 170.617 296.997 171.675 296.997C172.085 296.997 172.477 296.826 172.853 296.485C173.228 296.178 173.484 296.024 173.621 296.024C174.099 296.024 174.099 296.399 173.621 297.15C173.45 297.389 173.126 297.714 172.648 298.123C172.204 298.533 171.744 298.738 171.266 298.738C169.969 298.738 168.945 297.799 168.194 295.922C167.477 294.078 167.118 291.672 167.118 288.702C167.118 283.992 167.852 278.821 169.32 273.189C169.457 272.745 169.32 272.523 168.91 272.523C168.637 272.523 168.33 272.66 167.989 272.933C166.35 274.366 164.627 276.739 162.818 280.05C161.009 283.361 159.592 286.33 158.568 288.958C157.544 291.553 157.032 293.071 157.032 293.515C157.032 293.925 156.793 294.13 156.315 294.13C155.223 294.13 154.677 292.781 154.677 290.085C154.677 284.999 155.189 280.391 156.213 276.261C157.271 272.131 158.534 270.066 160.002 270.066C160.616 270.066 160.923 270.441 160.923 271.192C159.353 276.278 158.227 281.449 157.544 286.706H158.005ZM194.971 298.84C195.381 298.84 195.756 298.652 196.098 298.277C196.473 297.935 196.814 297.389 197.122 296.638C197.156 296.331 197.361 296.178 197.736 296.178C198.111 296.178 198.248 296.331 198.146 296.638C198.077 296.946 197.941 297.321 197.736 297.765C197.565 298.209 197.173 298.789 196.558 299.506C195.978 300.257 195.381 300.632 194.766 300.632C193.401 300.632 192.343 299.779 191.592 298.072C190.807 296.365 190.414 294.266 190.414 291.774C190.414 289.249 190.602 286.654 190.978 283.992H190.517C186.387 291.194 183.212 294.795 180.994 294.795C178.365 294.795 177.051 292.798 177.051 288.805C177.051 284.777 177.905 280.766 179.611 276.773C181.489 272.37 183.144 270.168 184.578 270.168C185.192 270.168 185.499 270.543 185.499 271.294C184.066 275.083 182.837 278.77 181.813 282.354C180.789 285.938 180.277 288.617 180.277 290.392C180.277 292.133 180.686 293.003 181.506 293.003C182.086 293.003 182.939 292.303 184.066 290.904C185.226 289.505 186.404 287.798 187.598 285.784C190.158 281.449 192.104 277.763 193.435 274.725C194.801 271.687 196.2 270.168 197.634 270.168C198.316 270.168 198.658 270.543 198.658 271.294C196.473 275.629 194.92 280.801 193.998 286.808C193.623 289.197 193.435 291.535 193.435 293.822C193.435 297.167 193.947 298.84 194.971 298.84ZM214.727 270.168C217.321 270.168 218.618 271.687 218.618 274.725C218.618 276.466 218.038 278.292 216.877 280.203C214.898 283.378 212.269 284.965 208.992 284.965C208.48 284.965 208.054 284.879 207.712 284.709C207.371 284.538 207.115 284.282 206.944 283.941C209.368 283.941 211.587 282.541 213.601 279.742C215.239 277.49 216.058 275.425 216.058 273.547C216.058 272.148 215.495 271.448 214.368 271.448C212.116 271.448 210.016 273.206 208.071 276.722C205.989 280.545 204.948 284.47 204.948 288.498C204.948 291.911 205.92 293.959 207.866 294.642C208.242 294.778 208.719 294.846 209.3 294.846C209.88 294.846 210.494 294.71 211.143 294.437C211.791 294.13 212.338 293.771 212.781 293.362C213.669 292.542 214.403 291.638 214.983 290.648C215.119 290.375 215.375 290.238 215.751 290.238C216.365 290.238 216.655 290.341 216.621 290.546C216.519 290.921 216.126 291.553 215.444 292.44C214.795 293.327 214.181 294.044 213.601 294.59C213.054 295.102 212.32 295.563 211.399 295.973C210.511 296.417 209.607 296.638 208.685 296.638C205.067 296.638 202.763 294.932 201.773 291.518C201.466 290.358 201.312 289.163 201.312 287.934C201.312 285.647 201.842 283.156 202.9 280.459C204.572 276.363 206.876 273.411 209.812 271.602C211.416 270.646 213.054 270.168 214.727 270.168ZM225.551 295C222.684 295 221.25 292.798 221.25 288.395C221.25 285.835 221.899 283.019 223.196 279.947C224.971 275.646 227.309 272.728 230.21 271.192C231.473 270.509 232.616 270.168 233.64 270.168C234.664 270.168 235.449 270.356 235.996 270.731C236.542 271.073 236.9 271.431 237.071 271.806L237.327 272.37C237.224 272.95 236.917 273.24 236.405 273.24C235.893 273.24 235.518 272.967 235.279 272.421C235.074 271.841 234.562 271.55 233.743 271.55C231.524 271.55 229.544 273.513 227.804 277.438C225.79 281.876 224.783 286.074 224.783 290.034C224.783 292.116 225.209 293.157 226.063 293.157C226.745 293.157 227.735 292.321 229.032 290.648C230.364 288.941 231.729 286.876 233.128 284.453C235.04 281.108 236.729 278.053 238.197 275.288C239.426 269.963 240.911 265.321 242.652 261.362C244.427 257.368 245.894 255.371 247.055 255.371C247.635 255.371 247.925 255.661 247.925 256.242C247.106 258.017 246.133 260.44 245.007 263.512C243.915 266.584 242.976 269.519 242.191 272.318C241.44 275.083 240.74 278.394 240.092 282.251C239.477 286.108 239.17 289.743 239.17 293.157C239.17 298.243 240.279 300.786 242.498 300.786C243.351 300.786 244.136 300.41 244.853 299.659C245.604 298.942 246.133 298.226 246.44 297.509C246.611 297.133 246.918 297.031 247.362 297.202C247.533 297.27 247.601 297.372 247.567 297.509C247.362 297.953 247.106 298.465 246.799 299.045C246.492 299.625 245.877 300.342 244.956 301.195C244.068 302.049 243.164 302.475 242.242 302.475C238.18 302.475 236.149 298.652 236.149 291.006C236.149 288.31 236.388 285.426 236.866 282.354H236.2C231.388 290.785 227.838 295 225.551 295Z" fill="white"/>
<path d="M31.9427 327.51C31.1649 327.219 30.4965 326.818 29.9375 326.307C29.3785 325.773 28.9167 325.177 28.5521 324.521C28.1875 323.84 27.9201 323.123 27.75 322.37C27.5799 321.616 27.4948 320.851 27.4948 320.073C27.4948 318.274 27.908 316.403 28.7344 314.458C29.5608 312.49 30.6545 310.557 32.0156 308.661C33.3767 306.741 34.9444 304.906 36.7188 303.156C38.4931 301.382 40.316 299.802 42.1875 298.417C42.0174 298.174 41.8351 297.894 41.6406 297.578C41.4462 297.262 41.2639 296.922 41.0938 296.557C40.9479 296.193 40.8264 295.828 40.7292 295.464C40.6319 295.075 40.5833 294.698 40.5833 294.333C40.5833 294.139 40.6927 294.042 40.9115 294.042C41.033 294.042 41.1059 294.078 41.1302 294.151C41.1545 294.224 41.1788 294.297 41.2031 294.37C41.3247 295.026 41.5069 295.67 41.75 296.302C42.0174 296.934 42.3455 297.505 42.7344 298.016C43.8767 297.189 45.0313 296.436 46.1979 295.755C47.3646 295.075 48.5069 294.503 49.625 294.042C50.7431 293.58 51.8125 293.227 52.8333 292.984C53.8785 292.717 54.8264 292.583 55.6771 292.583C57.1354 292.583 58.1806 292.911 58.8125 293.568C59.4444 294.224 59.7604 295.038 59.7604 296.01C59.7604 296.594 59.6632 297.153 59.4688 297.688C59.2743 298.222 59.0313 298.684 58.7396 299.073C58.6667 299.17 58.4601 299.413 58.1198 299.802C57.8038 300.191 57.3299 300.604 56.6979 301.042C56.066 301.479 55.276 301.88 54.3281 302.245C53.4045 302.585 52.3108 302.755 51.0469 302.755C49.9774 302.755 48.9931 302.646 48.0938 302.427C47.1944 302.184 46.3924 301.88 45.6875 301.516C44.9826 301.151 44.3628 300.75 43.8281 300.312C43.3177 299.851 42.9045 299.389 42.5885 298.927C40.7413 300.361 38.9427 301.941 37.1927 303.667C35.467 305.392 33.9358 307.179 32.599 309.026C31.2622 310.873 30.1806 312.745 29.3542 314.641C28.5521 316.512 28.151 318.323 28.151 320.073C28.1753 321.118 28.3455 322.09 28.6615 322.99C28.9774 323.889 29.4392 324.679 30.0469 325.359C30.6545 326.016 31.3958 326.538 32.2708 326.927C33.1701 327.292 34.2153 327.474 35.4062 327.474C36.5 327.425 37.4722 327.292 38.3229 327.073C39.1979 326.854 40.0972 326.465 41.0208 325.906C41.5313 325.615 42.0781 325.25 42.6615 324.812C43.2448 324.375 43.8524 323.852 44.4844 323.245C45.1163 322.637 45.7604 321.932 46.4167 321.13C47.0972 320.328 47.7778 319.405 48.4583 318.359C48.5313 318.262 48.6285 318.214 48.75 318.214C48.9688 318.214 49.0781 318.323 49.0781 318.542C49.0781 318.615 49.0538 318.675 49.0052 318.724C47.6198 320.863 46.2587 322.54 44.9219 323.755C43.6094 324.97 42.4184 325.882 41.349 326.49C40.3524 327.049 39.3681 327.462 38.3958 327.729C37.4236 327.997 36.4271 328.13 35.4062 328.13C34.8958 328.13 34.3368 328.082 33.7292 327.984C33.1458 327.911 32.5503 327.753 31.9427 327.51ZM44.8125 300.203C45.5174 300.738 46.4045 301.187 47.474 301.552C48.5434 301.917 49.7344 302.099 51.0469 302.099C52.2622 302.099 53.3194 301.929 54.2188 301.589C55.1181 301.248 55.8594 300.872 56.4427 300.458C57.026 300.021 57.4635 299.632 57.7552 299.292C58.0469 298.927 58.2049 298.733 58.2292 298.708C58.4722 298.368 58.6788 297.955 58.849 297.469C59.0191 296.983 59.1042 296.497 59.1042 296.01C59.1042 295.67 59.0556 295.33 58.9583 294.99C58.8611 294.649 58.6788 294.358 58.4115 294.115C58.1684 293.847 57.816 293.641 57.3542 293.495C56.9167 293.325 56.3576 293.24 55.6771 293.24C54.875 293.24 53.9757 293.361 52.9792 293.604C52.0069 293.847 50.974 294.2 49.8802 294.661C48.8108 295.123 47.6927 295.682 46.526 296.339C45.3837 296.995 44.2413 297.736 43.099 298.562C43.342 298.854 43.5972 299.134 43.8646 299.401C44.1563 299.668 44.4722 299.936 44.8125 300.203ZM57.6823 327.365C56.6858 327.316 55.8351 327.122 55.1302 326.781C54.4497 326.441 53.8906 326.016 53.4531 325.505C53.0399 324.995 52.7361 324.436 52.5417 323.828C52.3472 323.196 52.25 322.552 52.25 321.896C52.25 320.948 52.408 320.049 52.724 319.198C53.0399 318.323 53.4288 317.509 53.8906 316.755C54.3767 315.977 54.8993 315.273 55.4583 314.641C56.0174 313.984 56.5521 313.413 57.0625 312.927C59.1285 310.934 61.2309 309.451 63.3698 308.479C65.5087 307.507 67.441 307.021 69.1667 307.021C70.0903 307.021 70.8802 307.13 71.5365 307.349C72.1927 307.568 72.7396 307.811 73.1771 308.078C73.6146 308.321 73.9306 308.552 74.125 308.771C74.3438 308.99 74.4653 309.111 74.4896 309.135C74.5139 309.184 74.526 309.257 74.526 309.354C74.526 309.451 74.5139 309.512 74.4896 309.536C74.9028 309.634 75.2066 309.852 75.401 310.193C75.5955 310.533 75.6927 310.91 75.6927 311.323C75.6927 312.247 75.3403 313.377 74.6354 314.714C73.9306 316.05 72.8125 317.557 71.2812 319.234C72.059 320.036 72.934 320.632 73.9062 321.021C74.8785 321.385 75.9115 321.568 77.0052 321.568C78.2205 321.568 79.4479 321.337 80.6875 320.875C81.9271 320.413 83.1059 319.745 84.224 318.87C84.2726 318.821 84.3333 318.797 84.4062 318.797C84.6493 318.797 84.7708 318.918 84.7708 319.161C84.7708 319.283 84.7344 319.356 84.6615 319.38C83.4705 320.304 82.2309 321.009 80.9427 321.495C79.6545 321.981 78.3542 322.224 77.0417 322.224C75.8507 322.224 74.7083 322.03 73.6146 321.641C72.5451 321.227 71.6215 320.595 70.8438 319.745C69.7986 320.911 68.717 321.969 67.599 322.917C66.5052 323.84 65.3993 324.63 64.2812 325.286C63.1632 325.943 62.0694 326.453 61 326.818C59.9549 327.182 58.9705 327.365 58.0469 327.365H57.6823ZM69.276 307.641C68.4983 307.641 67.6476 307.75 66.724 307.969C65.8003 308.188 64.8403 308.516 63.8438 308.953C62.8715 309.391 61.7535 310.047 60.4896 310.922C59.25 311.797 58.059 312.818 56.9167 313.984C55.7986 315.151 54.8507 316.415 54.0729 317.776C53.2951 319.137 52.9062 320.51 52.9062 321.896C52.9062 322.479 52.9913 323.062 53.1615 323.646C53.3316 324.229 53.6111 324.752 54 325.214C54.4132 325.651 54.9479 326.016 55.6042 326.307C56.2847 326.575 57.1111 326.708 58.0833 326.708C59.809 326.708 61.7656 326.052 63.9531 324.74C66.1406 323.427 68.316 321.568 70.4792 319.161C70.1632 318.675 69.9323 318.128 69.7865 317.521C69.6649 316.889 69.6042 316.245 69.6042 315.589C69.6042 314.786 69.7014 314.021 69.8958 313.292C70.1146 312.538 70.4063 311.882 70.7708 311.323C71.1354 310.74 71.5851 310.29 72.1198 309.974C72.6545 309.634 73.25 309.464 73.9062 309.464C73.809 309.342 73.6389 309.184 73.3958 308.99C73.1771 308.771 72.8733 308.564 72.4844 308.37C72.1198 308.175 71.6701 308.005 71.1354 307.859C70.6007 307.714 69.9809 307.641 69.276 307.641ZM73.9062 310.12C72.8854 310.144 72.0226 310.642 71.3177 311.615C70.6128 312.562 70.2604 313.875 70.2604 315.552C70.2604 316.111 70.309 316.658 70.4062 317.193C70.5035 317.703 70.6736 318.189 70.9167 318.651C72.1563 317.193 73.1528 315.832 73.9062 314.568C74.6597 313.304 75.0365 312.222 75.0365 311.323C75.0365 310.958 74.9514 310.667 74.7812 310.448C74.6111 310.229 74.3194 310.12 73.9062 310.12ZM78.1536 326.854C78.105 326.903 78.2509 326.708 78.5911 326.271C78.9071 325.833 79.3446 325.25 79.9036 324.521C80.4384 323.767 81.0582 322.905 81.763 321.932C82.4679 320.936 83.1849 319.891 83.9141 318.797C84.9592 317.241 85.7977 315.929 86.4297 314.859C87.0616 313.766 87.5477 312.854 87.888 312.125C88.2526 311.396 88.4957 310.825 88.6172 310.411C88.7387 309.998 88.7995 309.682 88.7995 309.464C88.7995 309.318 88.7752 309.22 88.7266 309.172C88.7023 309.099 88.6901 309.026 88.6901 308.953C88.6901 308.734 88.7995 308.625 89.0182 308.625C89.2856 308.625 89.4193 308.892 89.4193 309.427C89.4193 309.962 89.079 310.97 88.3984 312.453C87.7179 313.911 86.5634 315.917 84.9349 318.469C88.046 315.139 91.072 312.623 94.013 310.922C96.9783 309.22 99.7491 308.37 102.326 308.37C103.808 308.37 104.987 308.613 105.862 309.099C106.737 309.561 107.174 310.29 107.174 311.286C107.174 311.773 107.077 312.271 106.883 312.781C106.688 313.267 106.47 313.717 106.227 314.13C105.984 314.543 105.765 314.884 105.57 315.151C105.376 315.394 105.266 315.528 105.242 315.552C105.242 315.552 105.157 315.661 104.987 315.88C104.841 316.075 104.635 316.342 104.367 316.682C104.1 317.023 103.796 317.411 103.456 317.849C103.14 318.286 102.824 318.76 102.508 319.271C101.025 321.58 100.284 323.354 100.284 324.594C100.284 325.104 100.442 325.542 100.758 325.906C101.074 326.247 101.584 326.417 102.289 326.417C103.115 326.417 104.148 326.125 105.388 325.542C106.652 324.958 108.122 324.083 109.799 322.917C110.577 322.382 111.306 321.847 111.987 321.312C112.692 320.778 113.312 320.292 113.846 319.854C114.381 319.417 114.794 319.064 115.086 318.797C115.402 318.505 115.56 318.359 115.56 318.359C115.657 318.311 115.73 318.286 115.779 318.286C115.997 318.286 116.107 318.396 116.107 318.615C116.107 318.712 116.07 318.797 115.997 318.87C115.463 319.356 114.879 319.854 114.247 320.365C113.713 320.802 113.093 321.3 112.388 321.859C111.707 322.394 110.978 322.929 110.201 323.464C106.798 325.845 104.161 327.036 102.289 327.036C101.438 327.036 100.782 326.806 100.32 326.344C99.8585 325.882 99.6276 325.299 99.6276 324.594C99.6276 323.184 100.405 321.288 101.961 318.906C102.301 318.42 102.629 317.946 102.945 317.484C103.286 317.023 103.589 316.622 103.857 316.281C104.173 315.868 104.477 315.491 104.768 315.151C105.084 314.738 105.376 314.312 105.643 313.875C105.862 313.51 106.056 313.097 106.227 312.635C106.421 312.174 106.518 311.736 106.518 311.323C106.518 309.816 105.109 309.062 102.289 309.062C100.806 309.062 99.3359 309.33 97.8776 309.865C96.4193 310.375 95.0095 311.043 93.6484 311.87C92.2873 312.696 90.987 313.644 89.7474 314.714C88.5078 315.759 87.3655 316.816 86.3203 317.885C85.2752 318.955 84.3394 319.988 83.513 320.984C82.6866 321.981 81.9939 322.832 81.4349 323.536C81.0703 324.023 80.73 324.484 80.4141 324.922C80.0738 325.359 79.7821 325.748 79.5391 326.089C79.2717 326.429 79.0651 326.708 78.9193 326.927C78.7734 327.146 78.7005 327.255 78.7005 327.255L78.1536 326.854ZM114.94 318.979C115.596 318.396 116.289 317.8 117.018 317.193C117.772 316.561 118.525 315.929 119.279 315.297C120.056 314.641 120.822 314.009 121.576 313.401C122.329 312.769 123.058 312.174 123.763 311.615C125.391 310.278 127.02 308.965 128.648 307.677C128.357 307.677 127.859 307.665 127.154 307.641C126.473 307.616 125.72 307.58 124.893 307.531C124.091 307.483 123.301 307.434 122.523 307.385C121.746 307.337 121.138 307.288 120.701 307.24C120.482 307.191 120.372 307.069 120.372 306.875C120.372 306.681 120.482 306.583 120.701 306.583C120.749 306.583 120.81 306.583 120.883 306.583C120.98 306.583 121.126 306.595 121.32 306.62C123.945 306.839 126.497 306.984 128.977 307.057C130.605 303.995 132.1 301.26 133.461 298.854C134.822 296.448 136.013 294.418 137.034 292.766C138.079 291.089 138.954 289.812 139.659 288.938C140.364 288.062 140.886 287.625 141.227 287.625C141.324 287.625 141.457 287.661 141.628 287.734C141.822 287.807 141.919 288.026 141.919 288.391C141.919 288.731 141.859 289.12 141.737 289.557C141.615 289.97 141.518 290.274 141.445 290.469C140.765 292.243 139.902 293.981 138.857 295.682C137.836 297.384 136.779 298.976 135.685 300.458C134.591 301.917 133.546 303.229 132.549 304.396C131.553 305.538 130.763 306.438 130.18 307.094C130.69 307.094 131.188 307.106 131.674 307.13C132.185 307.13 132.683 307.13 133.169 307.13C134.895 307.13 136.584 307.094 138.237 307.021C138.456 307.021 138.565 307.13 138.565 307.349C138.565 307.495 138.359 307.604 137.945 307.677C137.532 307.726 137.034 307.762 136.451 307.786C135.891 307.786 135.32 307.786 134.737 307.786C134.154 307.786 133.692 307.786 133.352 307.786C132.72 307.786 132.088 307.786 131.456 307.786C130.848 307.762 130.228 307.738 129.596 307.714C129.475 307.835 129.378 307.944 129.305 308.042C129.232 308.115 129.159 308.187 129.086 308.26C128.138 310.059 127.239 311.773 126.388 313.401C125.537 315.03 124.796 316.464 124.164 317.703C123.532 318.943 123.022 319.939 122.633 320.693C122.268 321.446 122.074 321.835 122.049 321.859C121.879 322.175 121.746 322.491 121.648 322.807C121.527 323.075 121.43 323.378 121.357 323.719C121.284 324.059 121.247 324.399 121.247 324.74C121.247 326.222 122.183 326.964 124.055 326.964C125.148 326.964 126.254 326.806 127.372 326.49C128.515 326.149 129.633 325.724 130.727 325.214C131.82 324.703 132.865 324.132 133.862 323.5C134.859 322.868 135.77 322.248 136.596 321.641C137.447 321.009 138.176 320.437 138.784 319.927C139.416 319.392 139.902 318.979 140.242 318.688C140.339 318.639 140.412 318.615 140.461 318.615C140.68 318.615 140.789 318.724 140.789 318.943C140.789 319.04 140.753 319.125 140.68 319.198C139.294 320.437 137.848 321.58 136.341 322.625C134.859 323.646 133.4 324.533 131.966 325.286C130.532 326.016 129.135 326.587 127.773 327C126.437 327.413 125.221 327.62 124.128 327.62C122.937 327.62 122.049 327.352 121.466 326.818C120.883 326.283 120.591 325.578 120.591 324.703C120.591 324.339 120.628 323.974 120.701 323.609C120.798 323.245 120.895 322.917 120.992 322.625C121.114 322.333 121.211 322.102 121.284 321.932C121.381 321.738 121.442 321.616 121.466 321.568C121.49 321.519 121.685 321.13 122.049 320.401C122.438 319.672 122.949 318.724 123.581 317.557C124.213 316.366 124.93 315.017 125.732 313.51C126.534 311.979 127.36 310.411 128.211 308.807C128.187 308.832 127.883 309.075 127.299 309.536C126.74 309.998 126.023 310.582 125.148 311.286C124.273 311.991 123.313 312.769 122.268 313.62C121.223 314.47 120.227 315.297 119.279 316.099C118.331 316.877 117.492 317.582 116.763 318.214C116.058 318.821 115.596 319.247 115.378 319.49C115.28 319.587 115.183 319.635 115.086 319.635C114.964 319.635 114.879 319.599 114.831 319.526C114.782 319.453 114.758 319.38 114.758 319.307C114.758 319.186 114.819 319.076 114.94 318.979ZM130.362 305.891C130.921 305.259 131.699 304.359 132.695 303.193C133.716 302.026 134.761 300.701 135.831 299.219C136.9 297.736 137.921 296.156 138.893 294.479C139.89 292.778 140.643 291.076 141.154 289.375C141.227 289.156 141.263 288.974 141.263 288.828C141.287 288.682 141.299 288.561 141.299 288.464C141.299 288.342 141.275 288.281 141.227 288.281C140.959 288.281 140.449 288.828 139.695 289.922C138.942 291.016 138.043 292.425 136.997 294.151C135.977 295.852 134.883 297.748 133.716 299.839C132.549 301.905 131.431 303.922 130.362 305.891ZM141.628 326.854C141.214 326.854 140.801 326.83 140.388 326.781C139.975 326.733 139.61 326.623 139.294 326.453C138.954 326.259 138.687 325.991 138.492 325.651C138.298 325.311 138.201 324.861 138.201 324.302C138.201 323.573 138.371 322.795 138.711 321.969C139.027 321.118 139.44 320.267 139.951 319.417C140.437 318.566 140.959 317.74 141.518 316.938C142.077 316.135 142.588 315.406 143.049 314.75C143.706 313.802 144.35 312.903 144.982 312.052C145.638 311.201 146.221 310.448 146.732 309.792C147.266 309.135 147.692 308.613 148.008 308.224C148.348 307.835 148.518 307.641 148.518 307.641C148.543 307.568 148.628 307.531 148.773 307.531C148.992 307.531 149.102 307.641 149.102 307.859C149.102 307.908 149.077 307.981 149.029 308.078C149.029 308.078 148.859 308.273 148.518 308.661C148.202 309.05 147.777 309.573 147.242 310.229C146.732 310.861 146.148 311.602 145.492 312.453C144.86 313.304 144.216 314.191 143.56 315.115C143.122 315.722 142.636 316.415 142.102 317.193C141.567 317.97 141.056 318.773 140.57 319.599C140.084 320.425 139.683 321.252 139.367 322.078C139.027 322.88 138.857 323.622 138.857 324.302C138.857 324.74 138.942 325.092 139.112 325.359C139.282 325.602 139.501 325.785 139.768 325.906C140.036 326.028 140.327 326.113 140.643 326.161C140.984 326.186 141.312 326.198 141.628 326.198C142.673 326.198 143.815 325.991 145.055 325.578C146.294 325.141 147.534 324.582 148.773 323.901C150.037 323.196 151.277 322.406 152.492 321.531C153.732 320.656 154.874 319.757 155.919 318.833C156.016 318.785 156.089 318.76 156.138 318.76C156.357 318.76 156.466 318.87 156.466 319.089C156.466 319.186 156.43 319.271 156.357 319.344C155.263 320.267 154.109 321.179 152.893 322.078C151.702 322.977 150.475 323.78 149.211 324.484C147.947 325.189 146.671 325.76 145.383 326.198C144.119 326.635 142.867 326.854 141.628 326.854ZM153.805 302.974C153.805 303.46 153.635 303.885 153.294 304.25C152.954 304.59 152.541 304.76 152.055 304.76C151.569 304.76 151.143 304.59 150.779 304.25C150.438 303.885 150.268 303.46 150.268 302.974C150.268 302.488 150.438 302.075 150.779 301.734C151.143 301.394 151.569 301.224 152.055 301.224C152.541 301.224 152.954 301.394 153.294 301.734C153.635 302.075 153.805 302.488 153.805 302.974ZM149.904 326.854C149.855 326.903 150.001 326.708 150.341 326.271C150.657 325.833 151.095 325.25 151.654 324.521C152.188 323.767 152.808 322.905 153.513 321.932C154.218 320.936 154.935 319.891 155.664 318.797C156.709 317.241 157.548 315.929 158.18 314.859C158.812 313.766 159.298 312.854 159.638 312.125C160.003 311.396 160.246 310.825 160.367 310.411C160.489 309.998 160.549 309.682 160.549 309.464C160.549 309.318 160.525 309.22 160.477 309.172C160.452 309.099 160.44 309.026 160.44 308.953C160.44 308.734 160.549 308.625 160.768 308.625C161.036 308.625 161.169 308.892 161.169 309.427C161.169 309.962 160.829 310.97 160.148 312.453C159.468 313.911 158.313 315.917 156.685 318.469C159.796 315.139 162.822 312.623 165.763 310.922C168.728 309.22 171.499 308.37 174.076 308.37C175.558 308.37 176.737 308.613 177.612 309.099C178.487 309.561 178.924 310.29 178.924 311.286C178.924 311.773 178.827 312.271 178.633 312.781C178.438 313.267 178.22 313.717 177.977 314.13C177.734 314.543 177.515 314.884 177.32 315.151C177.126 315.394 177.016 315.528 176.992 315.552C176.992 315.552 176.907 315.661 176.737 315.88C176.591 316.075 176.385 316.342 176.117 316.682C175.85 317.023 175.546 317.411 175.206 317.849C174.89 318.286 174.574 318.76 174.258 319.271C172.775 321.58 172.034 323.354 172.034 324.594C172.034 325.104 172.192 325.542 172.508 325.906C172.824 326.247 173.334 326.417 174.039 326.417C174.865 326.417 175.898 326.125 177.138 325.542C178.402 324.958 179.872 324.083 181.549 322.917C182.327 322.382 183.056 321.847 183.737 321.312C184.442 320.778 185.062 320.292 185.596 319.854C186.131 319.417 186.544 319.064 186.836 318.797C187.152 318.505 187.31 318.359 187.31 318.359C187.407 318.311 187.48 318.286 187.529 318.286C187.747 318.286 187.857 318.396 187.857 318.615C187.857 318.712 187.82 318.797 187.747 318.87C187.213 319.356 186.629 319.854 185.997 320.365C185.463 320.802 184.843 321.3 184.138 321.859C183.457 322.394 182.728 322.929 181.951 323.464C178.548 325.845 175.911 327.036 174.039 327.036C173.188 327.036 172.532 326.806 172.07 326.344C171.609 325.882 171.378 325.299 171.378 324.594C171.378 323.184 172.155 321.288 173.711 318.906C174.051 318.42 174.379 317.946 174.695 317.484C175.036 317.023 175.339 316.622 175.607 316.281C175.923 315.868 176.227 315.491 176.518 315.151C176.834 314.738 177.126 314.312 177.393 313.875C177.612 313.51 177.806 313.097 177.977 312.635C178.171 312.174 178.268 311.736 178.268 311.323C178.268 309.816 176.859 309.062 174.039 309.062C172.556 309.062 171.086 309.33 169.628 309.865C168.169 310.375 166.76 311.043 165.398 311.87C164.037 312.696 162.737 313.644 161.497 314.714C160.258 315.759 159.115 316.816 158.07 317.885C157.025 318.955 156.089 319.988 155.263 320.984C154.437 321.981 153.744 322.832 153.185 323.536C152.82 324.023 152.48 324.484 152.164 324.922C151.824 325.359 151.532 325.748 151.289 326.089C151.022 326.429 150.815 326.708 150.669 326.927C150.523 327.146 150.451 327.255 150.451 327.255L149.904 326.854ZM203.935 327.328C203.133 327.328 202.452 327.146 201.893 326.781C201.334 326.417 201.055 325.809 201.055 324.958C201.055 324.229 201.286 323.318 201.747 322.224C202.209 321.106 202.938 319.793 203.935 318.286C202.404 319.623 200.945 320.826 199.56 321.896C198.199 322.965 196.801 323.877 195.367 324.63C194.322 325.165 193.386 325.578 192.56 325.87C191.734 326.161 191.016 326.368 190.409 326.49C189.826 326.611 189.364 326.684 189.023 326.708C188.683 326.733 188.477 326.745 188.404 326.745C188.379 326.745 188.185 326.745 187.82 326.745C187.48 326.72 187.115 326.635 186.727 326.49C186.313 326.344 185.937 326.089 185.596 325.724C185.256 325.359 185.086 324.812 185.086 324.083C185.086 323.038 185.572 321.592 186.544 319.745C187.516 317.873 188.951 315.576 190.846 312.854C191.648 311.687 192.317 310.752 192.852 310.047C193.386 309.318 193.799 308.759 194.091 308.37C194.407 307.981 194.626 307.726 194.747 307.604C194.893 307.458 194.978 307.385 195.003 307.385C195.221 307.385 195.331 307.507 195.331 307.75C195.331 307.823 195.306 307.884 195.258 307.932C195.258 307.932 195.015 308.248 194.529 308.88C194.067 309.488 193.484 310.278 192.779 311.25C192.074 312.222 191.308 313.316 190.482 314.531C189.655 315.722 188.89 316.913 188.185 318.104C187.504 319.295 186.933 320.425 186.471 321.495C185.985 322.54 185.742 323.403 185.742 324.083C185.742 324.837 185.997 325.372 186.508 325.688C186.994 325.979 187.589 326.125 188.294 326.125C188.878 326.125 189.51 326.052 190.19 325.906C190.871 325.736 191.527 325.542 192.159 325.323C192.815 325.08 193.398 324.837 193.909 324.594C194.444 324.351 194.857 324.156 195.148 324.01C196.51 323.281 198.126 322.212 199.997 320.802C201.893 319.392 203.971 317.46 206.232 315.005C206.888 314.227 207.569 313.401 208.273 312.526C209.003 311.651 209.659 310.849 210.242 310.12C210.85 309.366 211.348 308.747 211.737 308.26C212.126 307.75 212.32 307.495 212.32 307.495L212.831 307.932C211.931 309.075 210.984 310.217 209.987 311.359C209.015 312.502 208.055 313.668 207.107 314.859C206.183 316.026 205.308 317.229 204.482 318.469C203.68 319.684 202.987 320.948 202.404 322.26C201.966 323.257 201.747 324.108 201.747 324.812C201.747 326.076 202.477 326.708 203.935 326.708C204.713 326.708 205.6 326.526 206.596 326.161C207.617 325.773 208.687 325.238 209.805 324.557C210.947 323.877 212.126 323.062 213.341 322.115C214.556 321.142 215.772 320.073 216.987 318.906C217.084 318.858 217.169 318.833 217.242 318.833C217.437 318.833 217.534 318.943 217.534 319.161C217.534 319.259 217.51 319.332 217.461 319.38C216.221 320.595 214.982 321.689 213.742 322.661C212.503 323.634 211.299 324.46 210.133 325.141C208.966 325.821 207.86 326.356 206.815 326.745C205.77 327.109 204.81 327.304 203.935 327.328ZM218.682 326.526C217.832 326.064 217.236 325.457 216.896 324.703C216.531 323.95 216.349 323.123 216.349 322.224C216.349 321.519 216.446 320.79 216.641 320.036C216.811 319.283 217.054 318.566 217.37 317.885C217.686 317.181 218.038 316.536 218.427 315.953C218.816 315.345 219.217 314.823 219.63 314.385C219.241 314.191 218.95 314.045 218.755 313.948C218.585 313.851 218.476 313.778 218.427 313.729C218.378 313.656 218.354 313.608 218.354 313.583C218.378 313.559 218.391 313.523 218.391 313.474C218.391 313.255 218.5 313.146 218.719 313.146C218.816 313.146 218.852 313.146 218.828 313.146C218.804 313.122 218.804 313.134 218.828 313.182C218.852 313.207 218.938 313.267 219.083 313.365C219.253 313.462 219.594 313.632 220.104 313.875C222.146 311.688 224.273 309.95 226.484 308.661C228.72 307.373 230.872 306.729 232.938 306.729C233.642 306.729 234.323 306.826 234.979 307.021C235.635 307.215 236.219 307.495 236.729 307.859C237.24 308.2 237.641 308.625 237.932 309.135C238.248 309.622 238.406 310.168 238.406 310.776C238.406 311.797 238.09 312.696 237.458 313.474C236.851 314.252 236.085 314.896 235.161 315.406C234.262 315.917 233.29 316.306 232.245 316.573C231.2 316.816 230.24 316.938 229.365 316.938C228.295 316.938 227.274 316.852 226.302 316.682C225.33 316.488 224.443 316.281 223.641 316.062C222.863 315.819 222.182 315.576 221.599 315.333C221.016 315.066 220.566 314.859 220.25 314.714C219.885 315.054 219.509 315.516 219.12 316.099C218.731 316.658 218.378 317.278 218.062 317.958C217.771 318.615 217.516 319.319 217.297 320.073C217.102 320.802 217.005 321.519 217.005 322.224C217.005 323.609 217.479 324.715 218.427 325.542C219.399 326.368 220.894 326.781 222.911 326.781C223.689 326.781 224.479 326.733 225.281 326.635C226.083 326.514 226.849 326.38 227.578 326.234C228.307 326.064 228.964 325.894 229.547 325.724C230.13 325.53 230.604 325.359 230.969 325.214C231.941 324.825 232.889 324.411 233.812 323.974C234.76 323.512 235.708 323.002 236.656 322.443C237.628 321.884 238.625 321.24 239.646 320.51C240.667 319.757 241.76 318.882 242.927 317.885C243.024 317.837 243.097 317.812 243.146 317.812C243.219 317.812 243.292 317.837 243.365 317.885C243.438 317.934 243.474 318.019 243.474 318.141C243.474 318.238 243.438 318.323 243.365 318.396C242.174 319.417 241.056 320.304 240.01 321.057C238.965 321.786 237.957 322.443 236.984 323.026C236.012 323.585 235.052 324.083 234.104 324.521C233.156 324.958 232.184 325.384 231.188 325.797C230.653 325.991 230.057 326.186 229.401 326.38C228.745 326.575 228.052 326.745 227.323 326.891C226.618 327.036 225.889 327.158 225.135 327.255C224.382 327.352 223.641 327.401 222.911 327.401C222.134 327.401 221.38 327.328 220.651 327.182C219.922 327.061 219.266 326.842 218.682 326.526ZM221.672 314.641C222.061 314.811 222.523 314.993 223.057 315.188C223.616 315.382 224.224 315.564 224.88 315.734C225.536 315.88 226.241 316.014 226.995 316.135C227.748 316.233 228.514 316.281 229.292 316.281C230.288 316.281 231.285 316.135 232.281 315.844C233.278 315.552 234.177 315.163 234.979 314.677C235.781 314.191 236.438 313.62 236.948 312.964C237.458 312.283 237.714 311.578 237.714 310.849C237.714 310.339 237.58 309.877 237.312 309.464C237.069 309.026 236.729 308.649 236.292 308.333C235.854 308.017 235.344 307.774 234.76 307.604C234.201 307.434 233.618 307.349 233.01 307.349C232.233 307.349 231.382 307.458 230.458 307.677C229.559 307.896 228.587 308.273 227.542 308.807C226.521 309.318 225.427 310.01 224.26 310.885C223.118 311.76 221.927 312.866 220.688 314.203L221.672 314.641ZM282.758 295.573C282.782 295.67 282.794 295.84 282.794 296.083C282.794 296.934 282.296 298.016 281.299 299.328C280.303 300.616 279.003 302.05 277.398 303.63C275.819 305.21 274.02 306.899 272.003 308.698C269.985 310.472 267.956 312.271 265.914 314.094C264.869 315.625 263.836 317.193 262.815 318.797C261.819 320.377 260.919 321.908 260.117 323.391C260.02 323.561 259.911 323.804 259.789 324.12C259.692 324.436 259.643 324.752 259.643 325.068C259.643 325.359 259.728 325.651 259.898 325.943C260.093 326.21 260.567 326.344 261.32 326.344C262.147 326.344 263.01 326.198 263.909 325.906C264.832 325.615 265.732 325.25 266.607 324.812C267.482 324.375 268.308 323.901 269.086 323.391C269.888 322.856 270.581 322.37 271.164 321.932C271.99 321.3 272.635 320.79 273.096 320.401C273.558 319.988 273.911 319.672 274.154 319.453C274.397 319.234 274.555 319.089 274.628 319.016C274.725 318.918 274.798 318.87 274.846 318.87C274.919 318.87 274.992 318.906 275.065 318.979C275.138 319.028 275.174 319.089 275.174 319.161C275.174 319.21 274.98 319.441 274.591 319.854C274.227 320.243 273.716 320.729 273.06 321.312C272.404 321.872 271.626 322.491 270.727 323.172C269.827 323.828 268.867 324.436 267.846 324.995C266.826 325.554 265.756 326.028 264.638 326.417C263.544 326.781 262.451 326.964 261.357 326.964C261.138 326.964 260.883 326.951 260.591 326.927C260.324 326.878 260.069 326.793 259.826 326.672C259.607 326.526 259.412 326.332 259.242 326.089C259.072 325.845 258.987 325.517 258.987 325.104C258.987 324.618 259.072 324.181 259.242 323.792C259.412 323.378 259.51 323.148 259.534 323.099C259.996 322.248 260.482 321.385 260.992 320.51C261.527 319.635 262.074 318.76 262.633 317.885C259.74 321.069 257.018 323.488 254.466 325.141C251.938 326.769 249.569 327.583 247.357 327.583C246.603 327.583 245.862 327.462 245.133 327.219C244.404 327 243.76 326.672 243.201 326.234C242.641 325.773 242.192 325.214 241.852 324.557C241.487 323.877 241.305 323.111 241.305 322.26C241.305 319.781 243.03 317.071 246.482 314.13C248.888 312.064 251.246 310.509 253.555 309.464C255.888 308.418 258.112 307.896 260.227 307.896C260.737 307.896 261.32 307.944 261.977 308.042C262.657 308.115 263.289 308.285 263.872 308.552C264.456 308.795 264.954 309.16 265.367 309.646C265.78 310.108 265.987 310.727 265.987 311.505C265.987 312.089 265.878 312.684 265.659 313.292C267.239 310.958 268.782 308.759 270.289 306.693C271.82 304.627 273.218 302.78 274.482 301.151C275.77 299.523 276.888 298.174 277.836 297.104C278.808 296.035 279.513 295.33 279.951 294.99C280.485 294.601 280.947 294.406 281.336 294.406C281.603 294.406 281.822 294.467 281.992 294.589C282.187 294.71 282.332 294.844 282.43 294.99C282.551 295.135 282.636 295.269 282.685 295.391C282.734 295.512 282.758 295.573 282.758 295.573ZM259.57 320.073C260.737 318.979 261.685 317.995 262.414 317.12C263.168 316.22 263.763 315.431 264.201 314.75C264.638 314.045 264.942 313.425 265.112 312.891C265.282 312.356 265.367 311.894 265.367 311.505C265.367 310.873 265.185 310.363 264.82 309.974C264.48 309.585 264.043 309.293 263.508 309.099C262.997 308.88 262.438 308.734 261.831 308.661C261.247 308.589 260.713 308.552 260.227 308.552C258.161 308.552 256.01 309.075 253.773 310.12C251.562 311.141 249.277 312.648 246.919 314.641C246.409 315.078 245.862 315.576 245.279 316.135C244.695 316.67 244.161 317.266 243.674 317.922C243.188 318.578 242.775 319.271 242.435 320C242.119 320.729 241.961 321.47 241.961 322.224C241.961 322.929 242.107 323.573 242.398 324.156C242.666 324.74 243.043 325.238 243.529 325.651C244.015 326.064 244.586 326.392 245.242 326.635C245.898 326.854 246.615 326.964 247.393 326.964C248.487 326.964 249.581 326.745 250.674 326.307C251.793 325.87 252.874 325.311 253.919 324.63C254.964 323.95 255.961 323.208 256.909 322.406C257.881 321.58 258.768 320.802 259.57 320.073ZM278.638 301.552C280.996 299.049 282.174 297.214 282.174 296.047C282.174 295.78 282.102 295.549 281.956 295.354C281.834 295.16 281.64 295.062 281.372 295.062C281.056 295.062 280.704 295.22 280.315 295.536C280.023 295.755 279.489 296.314 278.711 297.214C277.933 298.089 276.973 299.231 275.831 300.641C274.713 302.05 273.437 303.703 272.003 305.599C270.593 307.47 269.098 309.524 267.518 311.76C269.584 309.913 271.589 308.139 273.534 306.438C275.503 304.712 277.204 303.083 278.638 301.552Z" fill="white" fill-opacity="0.24"/>
<path d="M98.7917 106.583C98.0417 105.75 97.6667 104.681 97.6667 103.375C97.6667 103.236 97.6806 103.056 97.7083 102.833C97.7083 102.583 97.7361 102.347 97.7917 102.125C97.8194 101.903 97.875 101.708 97.9583 101.542C98.0139 101.375 98.1111 101.292 98.25 101.292C98.5 101.292 98.625 101.417 98.625 101.667C98.625 101.972 98.5972 102.278 98.5417 102.583C98.4583 102.861 98.4167 103.125 98.4167 103.375C98.4167 104.181 98.5694 104.833 98.875 105.333C99.1528 105.861 99.5139 106.264 99.9583 106.542C100.403 106.847 100.903 107.056 101.458 107.167C102.014 107.306 102.556 107.375 103.083 107.375C103.917 107.347 104.694 107.194 105.417 106.917C106.167 106.667 106.861 106.333 107.5 105.917C108.139 105.5 108.75 105.028 109.333 104.5C109.917 103.972 110.472 103.431 111 102.875C111.944 101.875 112.958 100.667 114.042 99.25C115.153 97.8056 116.333 96.25 117.583 94.5833C118.833 92.8889 120.139 91.125 121.5 89.2917C122.861 87.4306 124.264 85.5833 125.708 83.75C127.181 81.9167 128.681 80.1528 130.208 78.4583C131.764 76.7361 133.333 75.1667 134.917 73.75C133.556 73.3889 132.097 72.9722 130.542 72.5C128.986 72 127.306 71.4167 125.5 70.75C124.417 70.3611 123.375 70.0833 122.375 69.9167C121.403 69.75 120.472 69.6667 119.583 69.6667C118 69.6667 116.583 69.875 115.333 70.2917C114.111 70.6806 113.056 71.125 112.167 71.625C111.306 72.125 110.639 72.5972 110.167 73.0417C109.694 73.4583 109.417 73.6806 109.333 73.7083C109.25 73.7917 109.153 73.8333 109.042 73.8333C108.819 73.8333 108.708 73.7222 108.708 73.5C108.708 73.3611 108.736 73.2639 108.792 73.2083C109.597 72.4306 110.542 71.7222 111.625 71.0833C112.542 70.5278 113.667 70.0278 115 69.5833C116.333 69.1389 117.861 68.9167 119.583 68.9167C120.528 68.9167 121.5 69 122.5 69.1667C123.528 69.3333 124.611 69.625 125.75 70.0417C127.667 70.7361 129.431 71.3333 131.042 71.8333C132.681 72.3333 134.208 72.7639 135.625 73.125C137.792 71.3472 140.056 69.875 142.417 68.7083C144.778 67.5417 147.292 66.9583 149.958 66.9583C150.597 66.9583 151.264 67 151.958 67.0833C152.681 67.1667 153.333 67.3333 153.917 67.5833C154.528 67.8333 155.028 68.1944 155.417 68.6667C155.806 69.1111 156 69.7222 156 70.5C156 71.5556 155.681 72.4167 155.042 73.0833C154.403 73.75 153.611 74.2639 152.667 74.625C151.75 74.9861 150.764 75.2361 149.708 75.375C148.653 75.4861 147.722 75.5417 146.917 75.5417C145.806 75.5417 144.347 75.4444 142.542 75.25C140.736 75.0556 138.486 74.625 135.792 73.9583C133.681 75.875 131.611 78.0417 129.583 80.4583C127.556 82.8472 125.597 85.2778 123.708 87.75C121.847 90.1944 120.069 92.5833 118.375 94.9167C116.708 97.2222 115.167 99.2222 113.75 100.917C113.056 101.75 112.319 102.597 111.542 103.458C110.764 104.319 109.931 105.097 109.042 105.792C108.153 106.486 107.208 107.042 106.208 107.458C105.236 107.903 104.194 108.125 103.083 108.125C102.361 108.125 101.597 108.014 100.792 107.792C99.9583 107.569 99.2917 107.167 98.7917 106.583ZM146.917 74.7917C148.75 74.7917 150.208 74.6389 151.292 74.3333C152.375 74.0278 153.208 73.6528 153.792 73.2083C154.375 72.7639 154.75 72.3056 154.917 71.8333C155.111 71.3333 155.208 70.9028 155.208 70.5417C155.208 69.875 155.028 69.3611 154.667 69C154.306 68.6111 153.847 68.3333 153.292 68.1667C152.764 67.9722 152.194 67.8472 151.583 67.7917C150.972 67.7361 150.431 67.7083 149.958 67.7083C147.319 67.7639 144.889 68.3333 142.667 69.4167C140.472 70.5 138.417 71.8194 136.5 73.375C139.028 73.9861 141.139 74.375 142.833 74.5417C144.528 74.7083 145.889 74.7917 146.917 74.7917ZM130.646 103.833C131.646 101.194 132.993 98.3889 134.688 95.4167C136.382 92.4444 138.396 89.2222 140.729 85.75L140.938 85.4583C141.993 83.9306 143.174 82.3056 144.479 80.5833C145.813 78.8611 147.174 77.1389 148.562 75.4167C149.979 73.6667 151.382 71.9861 152.771 70.375C154.188 68.7361 155.507 67.2639 156.729 65.9583C157.951 64.6528 159.049 63.5556 160.021 62.6667C160.993 61.7778 161.743 61.1944 162.271 60.9167C162.826 60.6389 163.396 60.5 163.979 60.5C164.757 60.5 165.382 60.7778 165.854 61.3333C166.354 61.8611 166.604 62.5278 166.604 63.3333C166.604 63.7222 166.549 64.0833 166.438 64.4167C166.354 64.75 166.257 65.0556 166.146 65.3333C166.035 65.5833 165.924 65.7917 165.812 65.9583C165.701 66.125 165.646 66.2083 165.646 66.2083C163.34 69.2917 159.229 73.1111 153.312 77.6667C152.146 78.5556 150.979 79.4167 149.812 80.25C148.674 81.0833 147.59 81.8611 146.562 82.5833C145.535 83.2778 144.576 83.9167 143.688 84.5C142.826 85.0833 142.09 85.5833 141.479 86C139.951 88.2222 138.438 90.5556 136.938 93C135.438 95.4444 134.09 97.9167 132.896 100.417C134.146 98.6667 135.493 96.9028 136.938 95.125C138.41 93.3194 139.868 91.6389 141.312 90.0833C142.785 88.5 144.229 87.1111 145.646 85.9167C147.063 84.6944 148.354 83.7917 149.521 83.2083C149.521 83.2083 149.688 83.1389 150.021 83C150.382 82.8333 150.826 82.6667 151.354 82.5C151.882 82.3333 152.479 82.1806 153.146 82.0417C153.813 81.9028 154.479 81.8333 155.146 81.8333C155.896 81.8333 156.604 81.9444 157.271 82.1667C157.938 82.3611 158.507 82.6528 158.979 83.0417C159.479 83.4306 159.868 83.9028 160.146 84.4583C160.451 85.0139 160.604 85.6389 160.604 86.3333C160.604 87.25 160.396 88.1667 159.979 89.0833C159.59 89.9722 159.132 90.7917 158.604 91.5417C158.104 92.2917 157.618 92.9306 157.146 93.4583C156.674 93.9583 156.382 94.2639 156.271 94.375C155.965 94.6806 155.66 95 155.354 95.3333C155.076 95.6389 154.771 95.9861 154.438 96.375C154.104 96.7639 153.771 97.1806 153.438 97.625C152.465 98.8472 151.826 99.8056 151.521 100.5C151.215 101.167 151.062 101.667 151.062 102C151.062 102.028 151.049 102.097 151.021 102.208C151.021 102.319 151.063 102.431 151.146 102.542C151.257 102.653 151.438 102.764 151.688 102.875C151.938 102.958 152.326 103 152.854 103C153.715 103 154.618 102.847 155.562 102.542C156.535 102.236 157.604 101.75 158.771 101.083C159.965 100.389 161.312 99.4861 162.812 98.375C164.312 97.2361 166.035 95.8472 167.979 94.2083C168.09 94.1528 168.174 94.125 168.229 94.125C168.479 94.125 168.604 94.25 168.604 94.5C168.604 94.6667 168.563 94.7639 168.479 94.7917C166.924 96.0972 165.424 97.3056 163.979 98.4167C162.563 99.5 161.201 100.444 159.896 101.25C158.59 102.028 157.34 102.639 156.146 103.083C154.951 103.528 153.813 103.75 152.729 103.75C151.979 103.75 151.382 103.625 150.938 103.375C150.521 103.097 150.312 102.639 150.312 102C150.312 100.889 151.16 99.2778 152.854 97.1667C153.465 96.3889 154.174 95.5833 154.979 94.75C155.785 93.9167 156.549 93.0556 157.271 92.1667C157.993 91.2778 158.604 90.3611 159.104 89.4167C159.604 88.4444 159.854 87.4444 159.854 86.4167C159.854 85.7778 159.715 85.2222 159.438 84.75C159.16 84.25 158.799 83.8472 158.354 83.5417C157.938 83.2083 157.438 82.9722 156.854 82.8333C156.299 82.6667 155.729 82.5833 155.146 82.5833C154.479 82.5833 153.826 82.6528 153.188 82.7917C152.576 82.9028 152.021 83.0417 151.521 83.2083C151.021 83.375 150.618 83.5278 150.312 83.6667C150.007 83.8056 149.854 83.875 149.854 83.875C148.132 84.7361 146.215 86.1528 144.104 88.125C142.021 90.0972 139.799 92.5833 137.438 95.5833C136.549 96.7222 135.729 97.8056 134.979 98.8333C134.229 99.8611 133.59 100.778 133.062 101.583C132.507 102.361 132.076 102.986 131.771 103.458C131.465 103.931 131.312 104.167 131.312 104.167L130.646 103.833ZM163.979 61.2083C163.757 61.2083 163.549 61.2361 163.354 61.2917C163.16 61.3472 162.91 61.4444 162.604 61.5833C162.132 61.8056 161.243 62.5417 159.938 63.7917C158.632 65.0417 157.063 66.6806 155.229 68.7083C153.396 70.7083 151.382 73.0417 149.188 75.7083C147.021 78.375 144.854 81.25 142.688 84.3333C143.632 83.6944 144.729 82.9444 145.979 82.0833C147.229 81.2222 148.549 80.2778 149.938 79.25C151.326 78.2222 152.743 77.1389 154.188 76C155.66 74.8611 157.063 73.7083 158.396 72.5417C159.757 71.375 161.007 70.2222 162.146 69.0833C163.285 67.9167 164.243 66.8056 165.021 65.75C165.049 65.7222 165.188 65.4722 165.438 65C165.715 64.5278 165.854 63.9722 165.854 63.3333C165.854 63.1667 165.826 62.9583 165.771 62.7083C165.743 62.4583 165.66 62.2222 165.521 62C165.382 61.7778 165.188 61.5972 164.938 61.4583C164.715 61.2917 164.396 61.2083 163.979 61.2083ZM169.771 103.458C168.799 102.931 168.118 102.236 167.729 101.375C167.312 100.514 167.104 99.5694 167.104 98.5417C167.104 97.7361 167.215 96.9028 167.438 96.0417C167.632 95.1806 167.91 94.3611 168.271 93.5833C168.632 92.7778 169.035 92.0417 169.479 91.375C169.924 90.6806 170.382 90.0833 170.854 89.5833C170.41 89.3611 170.076 89.1944 169.854 89.0833C169.66 88.9722 169.535 88.8889 169.479 88.8333C169.424 88.75 169.396 88.6944 169.396 88.6667C169.424 88.6389 169.438 88.5972 169.438 88.5417C169.438 88.2917 169.562 88.1667 169.812 88.1667C169.924 88.1667 169.965 88.1667 169.938 88.1667C169.91 88.1389 169.91 88.1528 169.938 88.2083C169.965 88.2361 170.063 88.3056 170.229 88.4167C170.424 88.5278 170.813 88.7222 171.396 89C173.729 86.5 176.16 84.5139 178.688 83.0417C181.243 81.5694 183.701 80.8333 186.062 80.8333C186.868 80.8333 187.646 80.9444 188.396 81.1667C189.146 81.3889 189.813 81.7083 190.396 82.125C190.979 82.5139 191.438 83 191.771 83.5833C192.132 84.1389 192.312 84.7639 192.312 85.4583C192.312 86.625 191.951 87.6528 191.229 88.5417C190.535 89.4306 189.66 90.1667 188.604 90.75C187.576 91.3333 186.465 91.7778 185.271 92.0833C184.076 92.3611 182.979 92.5 181.979 92.5C180.757 92.5 179.59 92.4028 178.479 92.2083C177.368 91.9861 176.354 91.75 175.438 91.5C174.549 91.2222 173.771 90.9444 173.104 90.6667C172.438 90.3611 171.924 90.125 171.562 89.9583C171.146 90.3472 170.715 90.875 170.271 91.5417C169.826 92.1806 169.424 92.8889 169.062 93.6667C168.729 94.4167 168.438 95.2222 168.188 96.0833C167.965 96.9167 167.854 97.7361 167.854 98.5417C167.854 100.125 168.396 101.389 169.479 102.333C170.59 103.278 172.299 103.75 174.604 103.75C175.493 103.75 176.396 103.694 177.312 103.583C178.229 103.444 179.104 103.292 179.938 103.125C180.771 102.931 181.521 102.736 182.188 102.542C182.854 102.319 183.396 102.125 183.812 101.958C184.924 101.514 186.007 101.042 187.062 100.542C188.146 100.014 189.229 99.4306 190.312 98.7917C191.424 98.1528 192.563 97.4167 193.729 96.5833C194.896 95.7222 196.146 94.7222 197.479 93.5833C197.59 93.5278 197.674 93.5 197.729 93.5C197.813 93.5 197.896 93.5278 197.979 93.5833C198.063 93.6389 198.104 93.7361 198.104 93.875C198.104 93.9861 198.063 94.0833 197.979 94.1667C196.618 95.3333 195.34 96.3472 194.146 97.2083C192.951 98.0417 191.799 98.7917 190.688 99.4583C189.576 100.097 188.479 100.667 187.396 101.167C186.313 101.667 185.201 102.153 184.062 102.625C183.451 102.847 182.771 103.069 182.021 103.292C181.271 103.514 180.479 103.708 179.646 103.875C178.84 104.042 178.007 104.181 177.146 104.292C176.285 104.403 175.438 104.458 174.604 104.458C173.715 104.458 172.854 104.375 172.021 104.208C171.188 104.069 170.438 103.819 169.771 103.458ZM173.188 89.875C173.632 90.0694 174.16 90.2778 174.771 90.5C175.41 90.7222 176.104 90.9306 176.854 91.125C177.604 91.2917 178.41 91.4444 179.271 91.5833C180.132 91.6944 181.007 91.75 181.896 91.75C183.035 91.75 184.174 91.5833 185.312 91.25C186.451 90.9167 187.479 90.4722 188.396 89.9167C189.313 89.3611 190.063 88.7083 190.646 87.9583C191.229 87.1806 191.521 86.375 191.521 85.5417C191.521 84.9583 191.368 84.4306 191.062 83.9583C190.785 83.4583 190.396 83.0278 189.896 82.6667C189.396 82.3056 188.813 82.0278 188.146 81.8333C187.507 81.6389 186.84 81.5417 186.146 81.5417C185.257 81.5417 184.285 81.6667 183.229 81.9167C182.201 82.1667 181.09 82.5972 179.896 83.2083C178.729 83.7917 177.479 84.5833 176.146 85.5833C174.84 86.5833 173.479 87.8472 172.062 89.375L173.188 89.875Z" fill="white" fill-opacity="0.24"/>
<defs>
<filter id="filter0_i_113_71" x="0" y="0" width="300" height="400" filterUnits="userSpaceOnUse" color-interpolation-filters="sRGB">
<feFlood flood-opacity="0" result="BackgroundImageFix"/>
<feBlend mode="normal" in="SourceGraphic" in2="BackgroundImageFix" result="shape"/>
<feColorMatrix in="SourceAlpha" type="matrix" values="0 0 0 0 0 0 0 0 0 0 0 0 0 0 0 0 0 0 127 0" result="hardAlpha"/>
<feMorphology radius="35" operator="erode" in="SourceAlpha" result="effect1_innerShadow_113_71"/>
<feOffset/>
<feComposite in2="hardAlpha" operator="arithmetic" k2="-1" k3="1"/>
<feColorMatrix type="matrix" values="0 0 0 0 0.168627 0 0 0 0 0.0352941 0 0 0 0 0.239216 0 0 0 1 0"/>
<feBlend mode="normal" in2="shape" result="effect1_innerShadow_113_71"/>
</filter>
<clipPath id="clip0_113_71">
<rect width="32" height="32" fill="white" transform="translate(274 48.6274) rotate(-135)"/>
</clipPath>
</defs>
</svg>
